<?xml version="1.0" encoding="UTF-8"?>
<svg version="1.1" xmlns="http://www.w3.org/2000/svg" width="333" height="314">
<path d="M0 0 C3.42511097 1.60983584 6.86742461 3.18230613 10.30664062 4.76171875 C11.36591766 5.25013245 11.36591766 5.25013245 12.44659424 5.74841309 C19.24671397 8.8785993 26.09515068 11.89183916 32.96575928 14.86364746 C34.79409163 15.65450997 36.62095207 16.44877263 38.44775391 17.24316406 C45.70403678 20.38052025 53.00566537 23.36579422 60.36425781 26.25244141 C64.01226755 27.74536469 67.55066479 29.36888234 71.11132812 31.05859375 C72.13129883 31.54247559 72.13129883 31.54247559 73.171875 32.03613281 C73.71908203 32.29620117 74.26628906 32.55626953 74.83007812 32.82421875 C80.17684432 35.32616245 85.63252269 37.56884778 91.08154297 39.83666992 C95.33614785 41.61036087 99.55578006 43.42707796 103.73632812 45.37109375 C108.76449889 47.70391279 113.91261571 49.65203761 119.11132812 51.5703125 C121.86132812 52.68359375 121.86132812 52.68359375 124.86132812 54.68359375 C126.03428836 61.52082761 124.45028198 69.07120257 123.48632812 75.87109375 C123.27943359 77.38546021 123.27943359 77.38546021 123.06835938 78.93041992 C122.79377251 80.93929868 122.51682682 82.94785669 122.23730469 84.95605469 C121.9193974 87.26232752 121.61455076 89.56928054 121.32226562 91.87890625 C120.09295025 101.52590654 118.50785517 111.10080636 116.86132812 120.68359375 C117.41175781 120.9259375 117.9621875 121.16828125 118.52929688 121.41796875 C123.4561473 124.09183732 127.58007898 128.09578637 131.86132812 131.68359375 C132.98667969 132.60205078 132.98667969 132.60205078 134.13476562 133.5390625 C135.74991196 134.87403039 137.31239217 136.27234099 138.86132812 137.68359375 C138.86132812 138.34359375 138.86132812 139.00359375 138.86132812 139.68359375 C139.52132813 139.68359375 140.18132812 139.68359375 140.86132812 139.68359375 C140.86132812 140.34359375 140.86132812 141.00359375 140.86132812 141.68359375 C141.52132813 141.68359375 142.18132812 141.68359375 142.86132812 141.68359375 C142.86132812 142.34359375 142.86132812 143.00359375 142.86132812 143.68359375 C143.52132813 143.68359375 144.18132812 143.68359375 144.86132812 143.68359375 C147.17274596 146.06299447 148.7059172 147.7386953 149.25195312 151.05859375 C148.71198684 154.68716718 147.11634642 155.99467256 144.48632812 158.49609375 C143.67421875 159.28628906 142.86210937 160.07648438 142.02539062 160.890625 C139.86132812 162.68359375 139.86132812 162.68359375 137.86132812 162.68359375 C137.86132812 163.34359375 137.86132812 164.00359375 137.86132812 164.68359375 C136.53320312 166.05859375 136.53320312 166.05859375 134.61132812 167.68359375 C133.88429688 168.30105469 133.15726562 168.91851562 132.40820312 169.5546875 C131.1475 170.60849609 131.1475 170.60849609 129.86132812 171.68359375 C128.89710938 172.49957031 127.93289063 173.31554687 126.93945312 174.15625 C121.86650901 178.43366056 116.75790856 182.62784761 111.38476562 186.52734375 C108.46708169 188.74179105 107.85553159 189.70371112 106.79882812 193.37109375 C103.19132901 204.6673031 95.4833854 214.79344199 87.86132812 223.68359375 C86.9683555 224.7595498 86.07649994 225.83643355 85.18554688 226.9140625 C79.78998419 233.38492332 74.16922673 239.57509147 68.23632812 245.55859375 C67.33019775 246.47850098 67.33019775 246.47850098 66.40576172 247.41699219 C62.10845635 251.68359375 62.10845635 251.68359375 59.86132812 251.68359375 C59.86132812 252.34359375 59.86132812 253.00359375 59.86132812 253.68359375 C58.33295543 255.07958771 56.73482713 256.39947024 55.11132812 257.68359375 C54.09683594 258.493125 53.08234375 259.30265625 52.03710938 260.13671875 C51.50682129 260.55888672 50.9765332 260.98105469 50.43017578 261.41601562 C48.01015324 263.3713155 45.66232578 265.41057198 43.29882812 267.43359375 C31.51260344 277.26562574 18.78333725 285.99333467 5.91259766 294.33886719 C3.5760398 295.87061685 1.26502412 297.43808779 -1.04882812 299.00390625 C-2.74475055 300.12734766 -4.4413576 301.24975629 -6.13867188 302.37109375 C-6.92814209 302.9132251 -7.7176123 303.45535645 -8.53100586 304.01391602 C-12.17870494 306.38816032 -14.32917868 307.66434094 -18.75195312 307.76953125 C-22.63110777 306.5256962 -25.91611633 304.80041534 -29.32617188 302.62109375 C-29.98053223 302.21479736 -30.63489258 301.80850098 -31.30908203 301.38989258 C-33.26222902 300.16935405 -35.2023405 298.93060136 -37.13867188 297.68359375 C-38.64494141 296.71679688 -38.64494141 296.71679688 -40.18164062 295.73046875 C-56.46898669 285.03698361 -72.73707143 273.83050931 -87.13867188 260.68359375 C-88.38609593 259.5972953 -89.63609238 258.51394356 -90.88867188 257.43359375 C-111.29945438 239.53366148 -134.83724685 218.02194874 -143.54882812 191.484375 C-144.9870654 187.51770125 -146.89945319 185.79820213 -150.45117188 183.43359375 C-151.52109375 182.68078125 -152.59101563 181.92796875 -153.69335938 181.15234375 C-154.25764648 180.7553125 -154.82193359 180.35828125 -155.40332031 179.94921875 C-163.64403881 173.93910554 -171.19021584 166.82371475 -178.51367188 159.74609375 C-179.07948975 159.21467773 -179.64530762 158.68326172 -180.22827148 158.13574219 C-182.45299998 155.9350554 -183.99414398 154.23024925 -184.80273438 151.171875 C-183.84569415 147.58578899 -181.67227208 145.39056719 -179.13867188 142.80859375 C-178.63464844 142.27903076 -178.130625 141.74946777 -177.61132812 141.20385742 C-172.82147594 136.22890122 -167.8548889 131.59794883 -162.20117188 127.61328125 C-160.68523437 126.50339844 -160.68523437 126.50339844 -159.13867188 125.37109375 C-158.18992188 124.71496094 -157.24117187 124.05882812 -156.26367188 123.3828125 C-152.49778316 118.59930312 -153.82425205 113.43465634 -154.48486328 107.65454102 C-154.92925199 104.30214846 -155.43399684 100.96300179 -155.95117188 97.62109375 C-156.31190891 95.14993803 -156.67125319 92.67857865 -157.02929688 90.20703125 C-157.57527153 86.47877678 -158.12807647 82.75220722 -158.703125 79.02832031 C-159.22790656 75.60407361 -159.71774192 72.17638657 -160.20117188 68.74609375 C-160.37044189 67.70509521 -160.53971191 66.66409668 -160.71411133 65.59155273 C-160.91073364 64.13857788 -160.91073364 64.13857788 -161.11132812 62.65625 C-161.23773682 61.81328369 -161.36414551 60.97031738 -161.49438477 60.10180664 C-160.94608676 56.3743586 -158.98806522 55.02973965 -156.13867188 52.68359375 C-153.31811523 51.15722656 -153.31811523 51.15722656 -150.22851562 49.88671875 C-149.08455322 49.40783203 -147.94059082 48.92894531 -146.76196289 48.43554688 C-144.93749634 47.69208008 -144.93749634 47.69208008 -143.07617188 46.93359375 C-141.15933613 46.13642129 -139.24438962 45.33482559 -137.32951355 44.53295898 C-136.05259682 43.99853165 -134.7751002 43.46548771 -133.49702454 42.93383789 C-128.3479932 40.78857963 -123.26806236 38.51457875 -118.20117188 36.18359375 C-108.76574038 31.87153196 -99.18111311 27.93074098 -89.57446289 24.01953125 C-82.67878517 21.20033028 -75.89043604 18.22331209 -69.14135742 15.06958008 C-64.97506528 13.14649361 -60.75379489 11.3737383 -56.51367188 9.62109375 C-51.46408044 7.51431716 -46.4253779 5.401876 -41.45117188 3.12109375 C-40.62617188 2.74597656 -39.80117187 2.37085938 -38.95117188 1.984375 C-37.38279352 1.25900001 -35.81665434 0.52852658 -34.25976562 -0.22119141 C-32.16463418 -1.22850436 -30.05874119 -2.21042589 -27.95117188 -3.19140625 C-27.29737549 -3.51439697 -26.6435791 -3.8373877 -25.9699707 -4.17016602 C-16.43832473 -8.54249171 -8.82861681 -4.15149892 0 0 Z M-80.54492188 41.90234375 C-81.66535889 42.41547119 -82.7857959 42.92859863 -83.94018555 43.45727539 C-85.17307167 44.03259197 -86.40589884 44.6080349 -87.63867188 45.18359375 C-90.24664439 46.38614879 -92.85813376 47.5809061 -95.47070312 48.7734375 C-96.15828201 49.088004 -96.8458609 49.4025705 -97.55427551 49.72666931 C-102.92094583 52.16710969 -108.33524971 54.47867636 -113.77539062 56.75 C-114.57296783 57.08450165 -115.37054504 57.4190033 -116.19229126 57.76364136 C-119.35207613 59.08824574 -122.51173192 60.41238436 -125.68212891 61.71142578 C-127.89533137 62.61893728 -130.10130682 63.54231488 -132.30664062 64.46875 C-132.96991867 64.73498672 -133.63319672 65.00122345 -134.3165741 65.27552795 C-136.96227937 66.40039258 -138.84346785 67.29215014 -140.59448242 69.61401367 C-141.22637142 72.01711955 -141.13064454 73.5729717 -140.67773438 76.01171875 C-140.46503906 77.21054688 -140.46503906 77.21054688 -140.24804688 78.43359375 C-140.08820313 79.25859375 -139.92835938 80.08359375 -139.76367188 80.93359375 C-139.6115625 81.7740625 -139.45945313 82.61453125 -139.30273438 83.48046875 C-138.92639504 85.55033508 -138.53407669 87.61728473 -138.13867188 89.68359375 C-137.80867188 89.68359375 -137.47867188 89.68359375 -137.13867188 89.68359375 C-137.07808594 88.77996094 -137.0175 87.87632813 -136.95507812 86.9453125 C-136.87128906 85.76582031 -136.7875 84.58632812 -136.70117188 83.37109375 C-136.61996094 82.19933594 -136.53875 81.02757812 -136.45507812 79.8203125 C-136.13867188 76.68359375 -136.13867188 76.68359375 -135.13867188 73.68359375 C-133.62670898 72.55200195 -133.62670898 72.55200195 -131.66601562 71.484375 C-130.93954834 71.08404053 -130.21308105 70.68370605 -129.46459961 70.27124023 C-128.28232788 69.64004272 -128.28232788 69.64004272 -127.07617188 68.99609375 C-126.26414307 68.55402588 -125.45211426 68.11195801 -124.61547852 67.65649414 C-118.84313956 64.53629573 -113.00637236 61.5560296 -107.11987305 58.65795898 C-102.16023832 56.21410773 -97.26688433 53.66088728 -92.38867188 51.05859375 C-85.69190338 47.48698388 -78.95113741 44.0307589 -72.13867188 40.68359375 C-75.99364157 39.39860385 -76.91645375 40.21384868 -80.54492188 41.90234375 Z M38.86132812 40.68359375 C40.44408965 43.84911679 43.65579901 44.72139179 46.73242188 46.19921875 C48.20145761 46.91900724 49.67002572 47.63975073 51.13818359 48.36132812 C51.91200378 48.74023193 52.68582397 49.11913574 53.48309326 49.50952148 C57.43315533 51.45956367 61.35223115 53.46939813 65.27148438 55.48046875 C66.06235443 55.88591919 66.85322449 56.29136963 67.6680603 56.70910645 C69.27623994 57.53399775 70.88420068 58.35931597 72.49194336 59.18505859 C74.95204736 60.44808157 77.41349998 61.70845031 79.875 62.96875 C81.46557684 63.78499639 83.05607458 64.60139693 84.64648438 65.41796875 C85.36949234 65.78782898 86.09250031 66.15768921 86.8374176 66.53875732 C88.85187661 67.57516128 90.8579185 68.62601289 92.86132812 69.68359375 C93.53154999 70.02974731 94.20177185 70.37590088 94.89230347 70.73254395 C99.74567028 73.33662021 99.74567028 73.33662021 100.86132812 76.68359375 C101.08458627 78.74252996 101.26838571 80.80593028 101.42382812 82.87109375 C101.50761719 83.95777344 101.59140625 85.04445312 101.67773438 86.1640625 C101.73832031 86.99550781 101.79890625 87.82695313 101.86132812 88.68359375 C104.5720002 83.60383835 104.91606796 78.63712061 104.88476562 72.9453125 C104.87968994 71.74394653 104.87968994 71.74394653 104.87451172 70.51831055 C104.87016113 69.912854 104.86581055 69.30739746 104.86132812 68.68359375 C89.70626981 61.89546633 74.51796768 55.20371119 59.24121094 48.69433594 C58.14389648 48.22672852 57.04658203 47.75912109 55.91601562 47.27734375 C54.8831543 46.83777344 53.85029297 46.39820313 52.78613281 45.9453125 C49.35911804 44.46694753 45.96067551 42.93094207 42.57275391 41.36523438 C40.85868276 40.56025399 40.85868276 40.56025399 38.86132812 40.68359375 Z M-136.13867188 106.68359375 C-132.0124007 106.68359375 -129.59364037 104.57134625 -126.26367188 102.37109375 C-82.27907021 74.25028861 -32.53278029 60.61209172 19.12695312 71.5625 C28.96573176 73.7920356 38.45463958 77.06946683 47.86132812 80.68359375 C48.6022168 80.96686523 49.34310547 81.25013672 50.10644531 81.54199219 C66.1138779 87.75147632 82.06909774 95.37710465 95.86132812 105.68359375 C96.52132812 105.35359375 97.18132812 105.02359375 97.86132812 104.68359375 C85.79054568 92.92523156 72.0509617 84.76781967 56.86132812 77.68359375 C56.16700684 77.35117676 55.47268555 77.01875977 54.75732422 76.67626953 C37.01273357 68.19572735 18.47646341 61.82638668 -1.13867188 59.68359375 C-2.22776855 59.56395264 -2.22776855 59.56395264 -3.33886719 59.44189453 C-49.59605592 54.77944741 -103.14680061 73.85751078 -136.13867188 106.68359375 Z M-123.13867188 126.68359375 C-124.04987793 127.29968506 -124.04987793 127.29968506 -124.97949219 127.92822266 C-134.66006109 134.47777377 -143.42919363 141.90117481 -152.13867188 149.68359375 C-150.55369473 153.97116013 -147.29123006 156.45896849 -143.88867188 159.30859375 C-143.26532959 159.83493408 -142.6419873 160.36127441 -141.99975586 160.90356445 C-131.65066131 169.53106067 -120.63037332 176.86717604 -108.98242188 183.61328125 C-107.18416212 184.65718628 -105.39530456 185.71578841 -103.60742188 186.77734375 C-91.95711484 193.6370079 -79.95744138 199.33824816 -67.13867188 203.68359375 C-66.00429687 204.11671875 -64.86992188 204.54984375 -63.70117188 204.99609375 C-60.94546804 205.73542893 -59.80353367 205.47003916 -57.13867188 204.68359375 C-57.86570313 204.08224609 -57.86570313 204.08224609 -58.60742188 203.46875 C-72.25945439 191.89077627 -81.73827895 177.74400438 -83.82617188 159.62109375 C-83.94874813 157.97652903 -84.05366882 156.33052803 -84.13867188 154.68359375 C-84.17992188 153.966875 -84.22117187 153.25015625 -84.26367188 152.51171875 C-84.77794966 134.89770467 -78.76984893 118.34668263 -66.95117188 105.26171875 C-65.05431271 103.35091209 -63.11958892 101.50638881 -61.13867188 99.68359375 C-60.13414706 98.68813913 -59.13253708 97.68969114 -58.13867188 96.68359375 C-79.97607612 96.68359375 -105.72023099 114.66335644 -123.13867188 126.68359375 Z M22.86132812 96.68359375 C24.22456556 98.72356565 24.22456556 98.72356565 25.86132812 100.68359375 C26.52132812 100.68359375 27.18132812 100.68359375 27.86132812 100.68359375 C27.86132812 101.34359375 27.86132812 102.00359375 27.86132812 102.68359375 C28.52132812 102.68359375 29.18132812 102.68359375 29.86132812 102.68359375 C29.86132812 103.34359375 29.86132812 104.00359375 29.86132812 104.68359375 C30.52132812 104.68359375 31.18132812 104.68359375 31.86132812 104.68359375 C32.13460937 105.27398437 32.40789062 105.864375 32.68945312 106.47265625 C33.82324996 108.61175295 35.05784005 110.21278265 36.61132812 112.05859375 C47.94255704 126.91694538 49.14478747 144.75783548 47.86132812 162.68359375 C47.07934076 167.35210514 45.77395022 171.36458658 43.86132812 175.68359375 C43.37535156 176.83988281 42.889375 177.99617188 42.38867188 179.1875 C37.47896781 189.94706422 30.91972654 198.34782464 20.86132812 204.68359375 C25.45963717 206.1555611 28.82806499 204.59710148 33.17382812 202.93359375 C34.41495361 202.46530151 34.41495361 202.46530151 35.68115234 201.98754883 C56.6781586 193.85194 76.98725477 183.44089802 94.86132812 169.68359375 C95.9414687 168.87031144 97.02222887 168.05785155 98.10351562 167.24609375 C104.60996625 162.33311716 110.87246319 157.22368069 116.86132812 151.68359375 C114.68691049 146.26577103 109.91773331 143.42095358 105.4453125 139.92773438 C103.90984516 138.72170146 102.39302775 137.49204109 100.87695312 136.26171875 C92.62625699 129.68629086 83.8775418 124.21435041 74.80419922 118.84667969 C73.2502877 117.91644163 71.71788155 116.95031468 70.19335938 115.97265625 C58.03598734 108.18333116 37.63578331 96.68359375 22.86132812 96.68359375 Z M-69.13867188 119.68359375 C-71.12008968 123.64642936 -70.69687833 128.37569613 -70.13867188 132.68359375 C-68.49418499 135.86211691 -66.3826366 138.06161139 -63.13867188 139.68359375 C-58.46396395 140.25390812 -55.0155069 140.12201126 -50.76367188 137.99609375 C-46.67518366 134.39433033 -45.30930941 132.21933155 -44.70117188 126.74609375 C-44.87882763 122.47428034 -46.29087628 119.91622659 -49.13867188 116.68359375 C-56.31539494 112.17251068 -63.63767518 113.90754722 -69.13867188 119.68359375 Z M-33.07617188 126.74609375 C-36.9960868 132.32900289 -36.74764484 138.07066195 -36.13867188 144.68359375 C-34.80231648 148.92174942 -32.34983068 151.63415086 -28.82617188 154.24609375 C-27.93929687 155.05046875 -27.05242187 155.85484375 -26.13867188 156.68359375 C-26.40373433 162.10080759 -28.61484626 167.19177603 -30.45117188 172.24609375 C-33.22335054 180.0056331 -35.81548655 187.77610582 -38.13867188 195.68359375 C-28.49366499 201.36907149 -15.29565359 201.52850459 -4.62304688 198.77734375 C-2.35249578 197.86912331 -0.24319453 196.92415447 1.86132812 195.68359375 C1.24168892 191.18375171 0.09615402 187.19334369 -1.45898438 182.9296875 C-1.91643189 181.65053941 -2.37345045 180.37123786 -2.83007812 179.09179688 C-3.54717288 177.09973028 -4.26801636 175.10923975 -4.99658203 173.12133789 C-5.70334335 171.18620349 -6.39461001 169.24607189 -7.08398438 167.3046875 C-7.50180176 166.15411865 -7.91961914 165.0035498 -8.35009766 163.81811523 C-9.1699446 160.55928707 -9.24294695 158.83226998 -8.13867188 155.68359375 C-5.76367187 153.62109375 -5.76367187 153.62109375 -3.13867188 151.68359375 C0.37881949 147.78922831 0.76341188 144.44608608 1.04882812 139.30859375 C0.7255069 133.05771681 -0.20284239 129.19037449 -4.82617188 124.87109375 C-9.32674055 121.24134035 -13.37473086 120.03643728 -19.07617188 119.30859375 C-24.74537584 120.00278199 -29.33551095 122.4108191 -33.07617188 126.74609375 Z M16.86132812 152.68359375 C14.38635254 156.39605713 14.20229354 159.37952837 14.86132812 163.68359375 C16.5670669 167.09507129 17.89633239 169.0670687 21.11132812 171.12109375 C24.92192254 171.90053352 28.13198281 171.83630048 31.86132812 170.68359375 C35.39865935 168.12467329 36.62096401 166.49482265 37.86132812 162.30859375 C37.86132812 157.9226061 37.10686029 155.45029286 34.86132812 151.68359375 C28.14137908 147.05429552 23.10078424 147.72039002 16.86132812 152.68359375 Z M-109.13867188 210.68359375 C-98.26074637 225.97148906 -84.23058174 240.26529334 -69.44335938 251.81640625 C-67.13867188 253.68359375 -67.13867188 253.68359375 -64.95898438 255.92578125 C-63.32063952 257.91514362 -63.32063952 257.91514362 -61.13867188 257.68359375 C-61.13867188 258.34359375 -61.13867188 259.00359375 -61.13867188 259.68359375 C-59.35654288 261.1243409 -57.51206912 262.48870024 -55.63867188 263.80859375 C-54.61773437 264.53304687 -53.59679687 265.2575 -52.54492188 266.00390625 C-51.75085938 266.55820312 -50.95679688 267.1125 -50.13867188 267.68359375 C-49.47867188 267.35359375 -48.81867188 267.02359375 -48.13867188 266.68359375 C-49.10546875 265.84957031 -50.07226562 265.01554687 -51.06835938 264.15625 C-55.0997564 260.67449448 -59.1206844 257.1808083 -63.13867188 253.68359375 C-64.028125 252.91144531 -64.91757813 252.13929688 -65.83398438 251.34375 C-77.11492889 241.38210238 -89.31085141 230.55793306 -97.63867188 217.93359375 C-100.21002954 214.20042665 -103.061997 212.6065536 -107.13867188 210.68359375 C-107.79867187 210.68359375 -108.45867187 210.68359375 -109.13867188 210.68359375 Z M70.86132812 210.68359375 C65.38328961 213.79855683 62.14748671 217.67891504 58.33789062 222.62109375 C46.55430254 237.19259699 32.70332502 250.32818198 17.97070312 261.87890625 C15.6613581 263.68928618 15.6613581 263.68928618 13.86132812 266.68359375 C17.40639005 265.06299401 20.45154069 262.95730323 23.61132812 260.68359375 C24.59617188 259.98234375 25.58101562 259.28109375 26.59570312 258.55859375 C27.7171875 257.63046875 27.7171875 257.63046875 28.86132812 256.68359375 C28.86132812 256.02359375 28.86132812 255.36359375 28.86132812 254.68359375 C29.42207031 254.43996094 29.9828125 254.19632812 30.56054688 253.9453125 C33.30862586 252.43830144 35.3616982 250.6116016 37.67382812 248.49609375 C38.54652344 247.69816406 39.41921875 246.90023437 40.31835938 246.078125 C43.11101745 243.44847923 45.82579927 240.75895064 48.48632812 237.99609375 C49.86132812 236.68359375 49.86132812 236.68359375 51.86132812 235.68359375 C51.86132812 235.02359375 51.86132812 234.36359375 51.86132812 233.68359375 C52.85132813 233.35359375 53.84132812 233.02359375 54.86132812 232.68359375 C56.57009273 231.30844834 56.57009273 231.30844834 57.86132812 229.68359375 C57.86132812 229.02359375 57.86132812 228.36359375 57.86132812 227.68359375 C58.52132812 227.68359375 59.18132812 227.68359375 59.86132812 227.68359375 C61.43211452 226.1694826 61.43211452 226.1694826 63.04882812 224.18359375 C63.66242188 223.46171875 64.27601563 222.73984375 64.90820312 221.99609375 C65.55273438 221.23296875 66.19726562 220.46984375 66.86132812 219.68359375 C68.17095078 218.18108094 69.48330203 216.68094052 70.79882812 215.18359375 C71.38535156 214.51328125 71.971875 213.84296875 72.57617188 213.15234375 C73.00027344 212.66765625 73.424375 212.18296875 73.86132812 211.68359375 C72.87132812 211.35359375 71.88132812 211.02359375 70.86132812 210.68359375 Z M11.86132812 266.68359375 C11.53132812 267.34359375 11.20132813 268.00359375 10.86132812 268.68359375 C11.85132813 268.35359375 12.84132812 268.02359375 13.86132812 267.68359375 C13.20132813 267.35359375 12.54132813 267.02359375 11.86132812 266.68359375 Z M-44.13867188 270.68359375 C-43.80867187 271.34359375 -43.47867188 272.00359375 -43.13867188 272.68359375 C-42.47867188 272.35359375 -41.81867188 272.02359375 -41.13867188 271.68359375 C-42.12867188 271.35359375 -43.11867187 271.02359375 -44.13867188 270.68359375 Z " fill="#131F46" transform="translate(184.138671875,6.31640625)"/>
<path d="M0 0 C1.01191406 -0.03287109 2.02382812 -0.06574219 3.06640625 -0.09960938 C10.17429226 -0.15031414 14.0964249 1.26091721 19.75 5.4375 C21.22985147 6.12825345 22.72671261 6.78619084 24.25 7.375 C35.2202124 12.10613971 43.03747062 20.56789706 47.75 31.4375 C48.1625 32.22125 48.575 33.005 49 33.8125 C50.18792769 37.97024692 49.90010003 42.14297149 49.75 46.4375 C48.1 46.1075 46.45 45.7775 44.75 45.4375 C44.75 46.4275 44.75 47.4175 44.75 48.4375 C43.03515625 49.75390625 43.03515625 49.75390625 40.8125 51 C37.68912598 52.64088711 37.68912598 52.64088711 35.75 55.4375 C35.48763065 59.43863255 35.43654796 62.4299756 36.625 66.25 C39.96431186 69.68752691 44.17341001 70.38136385 48.75 71.4375 C43.07458458 81.20067443 36.43924013 90.82645524 25.75 95.4375 C23.70751953 95.41503906 23.70751953 95.41503906 21.75 94.4375 C20.40966797 91.74121094 20.40966797 91.74121094 19.2421875 88.171875 C19.03063019 87.54146301 18.81907288 86.91105103 18.60110474 86.26153564 C17.92687343 84.24161763 17.27556019 82.21515137 16.625 80.1875 C15.96223585 78.17607106 15.29494109 76.16618271 14.62747192 74.15631104 C14.02170334 72.32366973 13.42635255 70.48759465 12.83154297 68.65136719 C12.15331795 66.63598249 11.41903741 64.63770905 10.60595703 62.67285156 C9.48619686 59.748572 9.62807057 58.35451651 10.75 55.4375 C13.125 53.375 13.125 53.375 15.75 51.4375 C19.26749137 47.54313456 19.65208376 44.19999233 19.9375 39.0625 C19.637013 33.25308458 18.91657822 29.14715297 14.5625 25.125 C9.58619499 21.25339341 4.02482447 19.66915415 -2.25 20.4375 C-7.50452165 22.32504661 -11.18087959 24.64967215 -14.25 29.4375 C-16.03244185 34.78482556 -16.27356669 41.19133135 -14.56640625 46.60546875 C-12.86804481 49.79782448 -10.78556797 51.88884473 -7.9375 54 C-7.050625 54.804375 -6.16375 55.60875 -5.25 56.4375 C-5.5161254 61.86812145 -7.72695879 66.99220528 -9.5625 72.0625 C-12.14188873 79.17716032 -12.14188873 79.17716032 -14.4609375 86.37890625 C-14.94433594 87.98572266 -14.94433594 87.98572266 -15.4375 89.625 C-15.69917969 90.54667969 -15.96085937 91.46835938 -16.23046875 92.41796875 C-17.25 94.4375 -17.25 94.4375 -19.0546875 95.3671875 C-24.05110002 95.52721495 -29.28104322 92.25463361 -32.87109375 88.94140625 C-34.07297475 87.49989788 -35.1651638 85.96903346 -36.25 84.4375 C-36.95125 83.591875 -37.6525 82.74625 -38.375 81.875 C-43.25 75.5375 -43.25 75.5375 -43.25 71.4375 C-43.91 71.4375 -44.57 71.4375 -45.25 71.4375 C-45.745 68.4675 -45.745 68.4675 -46.25 65.4375 C-46.91 65.4375 -47.57 65.4375 -48.25 65.4375 C-49.04746733 60.53244302 -49.38522696 55.86064521 -49.375 50.875 C-49.37757812 49.61558594 -49.38015625 48.35617188 -49.3828125 47.05859375 C-49.2616308 43.75461034 -48.87922955 40.67853157 -48.25 37.4375 C-47.610625 37.6025 -46.97125 37.7675 -46.3125 37.9375 C-40.62446526 38.86615873 -36.05203775 39.35490104 -30.8125 36.6875 C-26.92047721 33.27011414 -26.3768447 31.74822854 -25.875 26.5625 C-25.96309421 22.25389214 -27.67331567 19.87307911 -30.25 16.4375 C-30.87890625 14.265625 -30.87890625 14.265625 -31.25 12.4375 C-26.97216543 8.31097148 -22.87981359 5.53092362 -17.36328125 3.296875 C-15.25878802 2.49475427 -15.25878802 2.49475427 -13.43920898 1.40698242 C-9.21892365 -0.46195402 -4.54703782 0.02567336 0 0 Z " fill="#59A5C7" transform="translate(164.25,106.5625)"/>
<path d="M0 0 C4.26488247 -0.3118744 6.98566073 0.65574011 10.8125 2.5 C12.27623047 3.19609375 12.27623047 3.19609375 13.76953125 3.90625 C14.50558594 4.2671875 15.24164063 4.628125 16 5 C15.67 4.01 15.34 3.02 15 2 C17.475 2.495 17.475 2.495 20 3 C19.67 4.32 19.34 5.64 19 7 C20.72669922 7.80050781 20.72669922 7.80050781 22.48828125 8.6171875 C33.28365911 13.65617651 43.86371185 19.00261898 54.37402344 24.60839844 C60.34413235 27.77217873 66.3491434 30.87016591 72.34863281 33.9777832 C73.27256836 34.45820068 74.19650391 34.93861816 75.1484375 35.43359375 C75.96489746 35.85697021 76.78135742 36.28034668 77.62255859 36.71655273 C78.40711426 37.14009033 79.19166992 37.56362793 80 38 C80.92506348 38.48605713 81.85012695 38.97211426 82.80322266 39.47290039 C83.52815918 39.97684326 84.2530957 40.48078613 85 41 C85 41.99 85 42.98 85 44 C80.45922795 42.60390266 76.28326178 40.77919408 72.0625 38.625 C71.37776611 38.27904785 70.69303223 37.9330957 69.98754883 37.57666016 C62.05601233 33.55185798 54.17996097 29.41899282 46.30078125 25.29296875 C41.86635336 22.97204811 37.42588744 20.66306617 32.98046875 18.36328125 C32.09203529 17.90350891 32.09203529 17.90350891 31.18565369 17.43444824 C28.31607919 15.94964654 25.44591942 14.46599195 22.57495117 12.98388672 C15.00613928 9.06785177 7.4917477 5.06102599 0 1 C0 0.67 0 0.34 0 0 Z " fill="#243053" transform="translate(197,37)"/>
<path d="M0 0 C6.42272046 -0.54532532 10.83511124 1.28691645 16.625 3.9375 C18.4894037 4.76472789 20.35399258 5.59153852 22.21875 6.41796875 C23.17136719 6.84513184 24.12398438 7.27229492 25.10546875 7.71240234 C29.75489988 9.78064625 34.44165405 11.76009497 39.125 13.75 C45.28663313 16.38316216 51.42440003 19.05066277 57.49609375 21.88671875 C59.40287485 22.73450754 61.3386851 23.51732777 63.28515625 24.26953125 C64.38730469 24.69621094 65.48945313 25.12289062 66.625 25.5625 C67.62789063 25.93503906 68.63078125 26.30757812 69.6640625 26.69140625 C72 28 72 28 72.64599609 30.08178711 C72.76281738 30.71479736 72.87963867 31.34780762 73 32 C67.08608239 30.10889161 61.33462986 27.9996221 55.625 25.5625 C54.43209351 25.05686523 54.43209351 25.05686523 53.21508789 24.54101562 C42.48597549 19.96531993 31.84469598 15.18732029 21.19628906 10.42773438 C16.57131537 8.36182801 11.94202656 6.30567795 7.3125 4.25 C5.87106835 3.60943215 4.42965903 2.96881406 2.98828125 2.328125 C2.00214844 1.88984375 1.01601562 1.4515625 0 1 C0 0.67 0 0.34 0 0 Z " fill="#1F2B4C" transform="translate(233,31)"/>
<path d="M0 0 C-0.94617188 0.46148437 -1.89234375 0.92296875 -2.8671875 1.3984375 C-17.74124958 8.70880378 -32.19157311 16.47725086 -45.86328125 25.87109375 C-53.42018349 31 -53.42018349 31 -57 31 C-57 30.01 -57 29.02 -57 28 C-56.34 28 -55.68 28 -55 28 C-54.92523438 27.43667969 -54.85046875 26.87335938 -54.7734375 26.29296875 C-53.72339339 23.17995918 -51.96221504 21.60055032 -49.625 19.3125 C-48.83351563 18.52488281 -48.04203125 17.73726562 -47.2265625 16.92578125 C-45 15 -45 15 -42 14 C-42.61277612 16.96175123 -43.25372522 18.38058783 -45 21 C-44.13761719 20.39414063 -43.27523437 19.78828125 -42.38671875 19.1640625 C-35.18570448 14.18845208 -27.84571859 9.62924195 -20.125 5.5 C-18.96810669 4.86892334 -18.96810669 4.86892334 -17.7878418 4.22509766 C-4.97142731 -2.48571366 -4.97142731 -2.48571366 0 0 Z " fill="#202A4D" transform="translate(95,92)"/>
<path d="M0 0 C20.06523143 2.33219358 46.99168496 17.66242192 62 31 C62 31.99 62 32.98 62 34 C57.10521382 32.31681266 52.97922774 29.6110182 48.625 26.875 C35.76002542 18.92726411 22.90706551 12.33010631 8.85302734 6.74755859 C5.18830911 5.26911759 1.59685851 3.63493568 -2 2 C-1.34 1.34 -0.68 0.68 0 0 Z " fill="#232E50" transform="translate(224,84)"/>
<path d="M0 0 C0.495 1.485 0.495 1.485 1 3 C-15.83 3 -32.66 3 -50 3 C-49.67 2.01 -49.34 1.02 -49 0 C-33.48544756 -3.81059183 -15.55273186 -3.40216009 0 0 Z " fill="#1B294D" transform="translate(191,75)"/>
<path d="M0 0 C-1.51127702 3.02255405 -3.74447832 3.18182923 -6.875 4.3125 C-12.02045364 6.22877644 -17.01023222 8.30621 -21.98828125 10.6171875 C-26.32119842 12.60662028 -30.69523569 14.49914685 -35.06835938 16.39819336 C-40.04152191 18.56352168 -44.96587015 20.81988609 -49.86328125 23.15234375 C-52 24 -52 24 -55 24 C-54.87402344 22.17529297 -54.87402344 22.17529297 -54 20 C-51.43066406 18.53955078 -51.43066406 18.53955078 -48.015625 17.1953125 C-47.4041864 16.94884979 -46.7927478 16.70238708 -46.16278076 16.44845581 C-44.19732246 15.65933655 -42.22437599 14.89149974 -40.25 14.125 C-37.69044511 13.11242174 -35.1342076 12.09161865 -32.578125 11.0703125 C-31.94604126 10.81952942 -31.31395752 10.56874634 -30.66271973 10.31036377 C-25.28068107 8.15820293 -20.03596079 5.77219757 -14.79589844 3.29248047 C-9.49502932 0.84200884 -5.92808268 -0.23247383 0 0 Z " fill="#192347" transform="translate(130,18)"/>
<path d="M0 0 C0 0.66 0 1.32 0 2 C-4.95 4.475 -4.95 4.475 -10 7 C-9.34 16.24 -8.68 25.48 -8 35 C-8.99 35 -9.98 35 -11 35 C-12.6633703 30.00988911 -13.1607816 24.82357325 -13.875 19.625 C-14.05546875 18.48804687 -14.2359375 17.35109375 -14.421875 16.1796875 C-15.54691349 7.77150511 -15.54691349 7.77150511 -12.7265625 3.79296875 C-8.37197151 0.92941966 -5.24482322 -0.29970418 0 0 Z " fill="#1D284B" transform="translate(38,57)"/>
<path d="M0 0 C6.75 0.875 6.75 0.875 9 2 C9 2.66 9 3.32 9 4 C11.64 4.66 14.28 5.32 17 6 C17 6.66 17 7.32 17 8 C17.639375 8.12375 18.27875 8.2475 18.9375 8.375 C19.618125 8.58125 20.29875 8.7875 21 9 C21.33 9.66 21.66 10.32 22 11 C22.99 11.33 23.98 11.66 25 12 C27.61959017 14.78098672 29.79415279 17.88557696 32 21 C32.48210937 21.67160156 32.96421875 22.34320313 33.4609375 23.03515625 C37.84715241 29.93347607 39.11707002 37.98155423 40 46 C39.67 46.99 39.34 47.98 39 49 C36.36 48.01 33.72 47.02 31 46 C31.33 45.01 31.66 44.02 32 43 C33.32 43.33 34.64 43.66 36 44 C36.4539362 36.85050483 35.40851424 32.26943111 32 26 C31.63777344 25.30777344 31.27554688 24.61554688 30.90234375 23.90234375 C26.49881044 16.15511058 19.89654398 10.97057861 12 7 C10.97519531 6.48050781 9.95039063 5.96101563 8.89453125 5.42578125 C5.93581025 3.93774923 2.97091328 2.46350408 0 1 C0 0.67 0 0.34 0 0 Z " fill="#1F5580" transform="translate(177,108)"/>
<path d="M0 0 C-0.639375 0.28875 -1.27875 0.5775 -1.9375 0.875 C-4.15206079 1.82823451 -4.15206079 1.82823451 -5 4 C-2.03108238 3.54324344 -0.6296845 2.73433888 1.875 0.9375 C5.31304759 -1.19408951 7.04206169 -1.37694651 11 -1 C7.02746546 2.45672095 2.9545748 4.6858748 -1.75 6.9375 C-7.09010966 9.53576935 -12.31085974 12.21100212 -17.3984375 15.28515625 C-17.92695312 15.52105469 -18.45546875 15.75695312 -19 16 C-19.66 15.67 -20.32 15.34 -21 15 C-19.60344703 11.50126729 -18.28739516 10.29108169 -14.875 8.75 C-14.15054688 8.41484375 -13.42609375 8.0796875 -12.6796875 7.734375 C-11.84824219 7.37085938 -11.84824219 7.37085938 -11 7 C-11.33 5.68 -11.66 4.36 -12 3 C-10.3789897 2.30314502 -8.75303934 1.61777139 -7.125 0.9375 C-6.22007813 0.55464844 -5.31515625 0.17179687 -4.3828125 -0.22265625 C-2 -1 -2 -1 0 0 Z " fill="#1B2649" transform="translate(123,39)"/>
<path d="M0 0 C2.45527655 2.45527655 2.29683191 3.11569215 2.3125 6.5 C2.19103031 14.77098129 0.49901732 22.88924557 -1 31 C-0.38125 31.268125 0.2375 31.53625 0.875 31.8125 C3 33 3 33 5 36 C4.34 36.66 3.68 37.32 3 38 C-0.25081151 36.58942343 -2.15728712 35.04719448 -4 32 C-4.48164332 25.91323258 -3.79724981 20.03687379 -3 14 C-2.87214111 12.96746094 -2.87214111 12.96746094 -2.74169922 11.9140625 C-1.41630458 1.41630458 -1.41630458 1.41630458 0 0 Z " fill="#1E284E" transform="translate(302,96)"/>
<path d="M0 0 C7.61103027 2.36482701 14.79148517 5.4358921 22.0625 8.6875 C23.21427734 9.19861328 24.36605469 9.70972656 25.55273438 10.23632812 C28.37014812 11.48721306 31.18582798 12.74184323 34 14 C34 14.99 34 15.98 34 17 C34.99 17.33 35.98 17.66 37 18 C30.83104094 17.47123208 25.71011397 14.7835371 20.1875 12.1875 C18.28530098 11.30567731 16.3829588 10.42416338 14.48046875 9.54296875 C13.56571777 9.11677246 12.6509668 8.69057617 11.70849609 8.25146484 C7.82498607 6.45708298 3.91617577 4.72170939 0 3 C0 2.01 0 1.02 0 0 Z " fill="#1F2A4F" transform="translate(194,12)"/>
<path d="M0 0 C0.33 0 0.66 0 1 0 C1.0544207 2.68777802 1.09387266 5.37443212 1.125 8.0625 C1.14175781 8.81466797 1.15851562 9.56683594 1.17578125 10.34179688 C1.21865121 15.29327709 0.58399375 19.30414451 -1 24 C-2.32 24 -3.64 24 -5 24 C-5 21.69 -5 19.38 -5 17 C-4.34 17 -3.68 17 -3 17 C-3 16.34 -3 15.68 -3 15 C-3.99 15 -4.98 15 -6 15 C-6 12.36 -6 9.72 -6 7 C-5.67 7.66 -5.34 8.32 -5 9 C-4.34 9 -3.68 9 -3 9 C-2.87625 7.88625 -2.7525 6.7725 -2.625 5.625 C-2 2 -2 2 0 0 Z " fill="#1F2848" transform="translate(49,84)"/>
<path d="M0 0 C0 0.99 0 1.98 0 3 C-1.05743408 3.24907104 -1.05743408 3.24907104 -2.13623047 3.50317383 C-5.38322804 4.26984819 -8.62911119 5.04114552 -11.875 5.8125 C-12.98359375 6.07353516 -14.0921875 6.33457031 -15.234375 6.60351562 C-21.89664715 8.19070399 -28.46772872 9.94053286 -35 12 C-35 11.01 -35 10.02 -35 9 C-28.17364794 6.25411906 -21.22596691 4.14472425 -14.125 2.25 C-13.30475342 2.02739502 -12.48450684 1.80479004 -11.6394043 1.57543945 C-7.6805709 0.54098878 -4.13042807 -0.30100285 0 0 Z " fill="#202A4D" transform="translate(139,76)"/>
<path d="M0 0 C0.33 0.66 0.66 1.32 1 2 C1.99 2 2.98 2 4 2 C4.54692021 13.56634973 4.54692021 13.56634973 1 18 C0.319375 19.093125 -0.36125 20.18625 -1.0625 21.3125 C-1.701875 22.199375 -2.34125 23.08625 -3 24 C-3.66 24 -4.32 24 -5 24 C-6.95031608 28.94749352 -6.95031608 28.94749352 -6 34 C-5.34 34 -4.68 34 -4 34 C-4.33 34.99 -4.66 35.98 -5 37 C-5.66 37 -6.32 37 -7 37 C-10 30.16949153 -10 30.16949153 -10 26.25 C-8.64604052 23.20359117 -6.65825294 21.96204384 -4 20 C0.01743043 15.55213059 0.13252546 10.99961348 0.0625 5.1875 C0.05347656 4.21167969 0.04445312 3.23585937 0.03515625 2.23046875 C0.02355469 1.49441406 0.01195312 0.75835937 0 0 Z " fill="#438FB0" transform="translate(184,138)"/>
<path d="M0 0 C0.99 0.33 1.98 0.66 3 1 C3 1.99 3 2.98 3 4 C3.721875 4.103125 4.44375 4.20625 5.1875 4.3125 C9.37975434 5.33727328 12.44068776 7.62712517 16 10 C16 10.66 16 11.32 16 12 C16.66 12 17.32 12 18 12 C18 12.66 18 13.32 18 14 C18.66 14 19.32 14 20 14 C23.68859154 17.75535338 26.78717267 21.26697745 27.4375 26.5625 C27.293125 27.366875 27.14875 28.17125 27 29 C24.53713232 26.64322508 22.41796384 24.11677998 20.3125 21.4375 C19.68988281 20.65246094 19.06726563 19.86742188 18.42578125 19.05859375 C17 17 17 17 17 15 C16.443125 14.7525 15.88625 14.505 15.3125 14.25 C12.57946033 12.77268126 10.40718822 10.96951763 8 9 C7.30777344 8.50886719 6.61554688 8.01773438 5.90234375 7.51171875 C5.17144531 6.99222656 4.44054687 6.47273438 3.6875 5.9375 C2.99011719 5.45152344 2.29273438 4.96554688 1.57421875 4.46484375 C1.05472656 3.98144531 0.53523437 3.49804688 0 3 C0 2.01 0 1.02 0 0 Z " fill="#1E284B" transform="translate(196,97)"/>
<path d="M0 0 C3.75639548 1.46983166 3.75639548 1.46983166 4.82373047 3.79272461 C5.97448498 9.76604019 6.24088493 15.48745564 6.125 21.5625 C6.11597656 22.47580078 6.10695312 23.38910156 6.09765625 24.33007812 C6.07437253 26.55367319 6.0416771 28.77668677 6 31 C5.34 31 4.68 31 4 31 C3.505 32.485 3.505 32.485 3 34 C2.98018066 33.44650879 2.96036133 32.89301758 2.93994141 32.32275391 C2.59411826 18.98865959 2.59411826 18.98865959 0.40234375 5.875 C0 4 0 4 0 0 Z " fill="#1E294D" transform="translate(227,135)"/>
<path d="M0 0 C2 3 2 3 1.859375 6.17578125 C0.86946185 10.58089475 -0.70678028 14.18744668 -2.75 18.1875 C-3.08515625 18.88552734 -3.4203125 19.58355469 -3.765625 20.30273438 C-5.90655433 24.56431908 -7.95796547 27.26526685 -12 30 C-12.66 29.34 -13.32 28.68 -14 28 C-13.62488281 27.53851563 -13.24976563 27.07703125 -12.86328125 26.6015625 C-6.4740831 18.45815126 -2.61432448 9.98969518 0 0 Z " fill="#18224B" transform="translate(229,170)"/>
<path d="M0 0 C-0.17236328 1.8137207 -0.17236328 1.8137207 -1 4 C-3.26904297 5.53979492 -3.26904297 5.53979492 -6.2421875 6.98046875 C-7.30824219 7.50447266 -8.37429687 8.02847656 -9.47265625 8.56835938 C-10.59542969 9.10267578 -11.71820313 9.63699219 -12.875 10.1875 C-13.99003906 10.73341797 -15.10507813 11.27933594 -16.25390625 11.84179688 C-24.35597559 15.7853252 -24.35597559 15.7853252 -28 17 C-24.90877265 9.85716398 -16.26016798 7.04277541 -9.625 3.6875 C-8.91069824 3.3255957 -8.19639648 2.96369141 -7.46044922 2.59082031 C-2.24521006 0 -2.24521006 0 0 0 Z " fill="#1D264C" transform="translate(99,54)"/>
<path d="M0 0 C2.0932917 3.13993754 2.5390447 5.0596363 2.44921875 8.8046875 C1.39263297 13.96817628 -2.44773338 17.65749914 -6.3125 21 C-11.44862219 22.91111523 -16.78239811 22.4670808 -22 21 C-22 23.31 -22 25.62 -22 28 C-22.33 28 -22.66 28 -23 28 C-23 25.03 -23 22.06 -23 19 C-22.01 19.33 -21.02 19.66 -20 20 C-19.67 19.34 -19.34 18.68 -19 18 C-18.41992188 18.04640625 -17.83984375 18.0928125 -17.2421875 18.140625 C-11.60050472 18.40129681 -8.40838511 17.88357735 -4 14 C-2.95650161 12.36021682 -1.94392019 10.69905634 -1 9 C-0.34 9 0.32 9 1 9 C0.67 6.03 0.34 3.06 0 0 Z " fill="#8CCCE0" transform="translate(140,127)"/>
<path d="M0 0 C2.85924079 2.85924079 2.37469 5.07053857 2.5625 9.0625 C2.86120791 14.74067196 3.30685215 20.35579605 4 26 C3.01 26 2.02 26 1 26 C1 25.01 1 24.02 1 23 C0.34 23 -0.32 23 -1 23 C-1.33 15.74 -1.66 8.48 -2 1 C-1.34 0.67 -0.68 0.34 0 0 Z " fill="#253253" transform="translate(284,81)"/>
<path d="M0 0 C3.0390625 0.7578125 3.0390625 0.7578125 6.625 2.125 C7.55735474 2.4796936 7.55735474 2.4796936 8.50854492 2.84155273 C10.34442719 3.54714943 12.17236712 4.27330307 14 5 C14.95261719 5.35964844 15.90523438 5.71929687 16.88671875 6.08984375 C21.4247449 7.90943878 21.4247449 7.90943878 23 9 C23.59838867 11.06811523 23.59838867 11.06811523 24 13 C17.60703339 11.00667932 11.52953606 8.58525386 5.4375 5.8125 C4.61958984 5.44447266 3.80167969 5.07644531 2.95898438 4.69726562 C0.97090782 3.80204987 -1.01480308 2.9015835 -3 2 C-2.01 1.34 -1.02 0.68 0 0 Z " fill="#233054" transform="translate(282,50)"/>
<path d="M0 0 C2.4609375 1.36328125 2.4609375 1.36328125 5.375 3.3125 C8.5211118 5.40284113 11.57406153 7.40068749 15 9 C15 10.32 15 11.64 15 13 C10.27934033 11.45730076 5.58335908 9.92205381 1 8 C1 7.34 1 6.68 1 6 C0.01 6 -0.98 6 -2 6 C-2 4.35 -2 2.7 -2 1 C-1.34 0.67 -0.68 0.34 0 0 Z " fill="#040F34" transform="translate(149,280)"/>
<path d="M0 0 C0.66 0 1.32 0 2 0 C2.73260856 3.54464143 2.88812407 6.47203754 2 10 C-1.22656609 13.64326049 -4.97736569 16.29065371 -9 19 C-9.68191406 19.47824219 -10.36382813 19.95648438 -11.06640625 20.44921875 C-12.35462919 21.33390197 -13.67278066 22.17497176 -15 23 C-12.54238662 17.6887597 -8.95510798 13.39029901 -4.1875 10 C-1.18361402 7.25358996 -1.2982826 4.95224439 -1 1 C-0.67 0.67 -0.34 0.34 0 0 Z " fill="#1D274D" transform="translate(32,119)"/>
<path d="M0 0 C4.26488247 -0.3118744 6.98566073 0.65574011 10.8125 2.5 C12.27623047 3.19609375 12.27623047 3.19609375 13.76953125 3.90625 C14.50558594 4.2671875 15.24164063 4.628125 16 5 C15.67 4.01 15.34 3.02 15 2 C17.475 2.495 17.475 2.495 20 3 C19.67 4.32 19.34 5.64 19 7 C20.65 7.66 22.3 8.32 24 9 C24 9.66 24 10.32 24 11 C17.81218608 10.54803484 13.43479315 8.44359034 8.0625 5.4375 C7.28326172 5.01275391 6.50402344 4.58800781 5.70117188 4.15039062 C3.79550195 3.10987146 1.89699278 2.05625582 0 1 C0 0.67 0 0.34 0 0 Z " fill="#1E2A4C" transform="translate(197,37)"/>
<path d="M0 0 C4.33320379 0.88759458 7.36577692 3.17209939 10.875 5.75 C11.47441406 6.18054688 12.07382812 6.61109375 12.69140625 7.0546875 C16.59905917 9.88582866 20.32381496 12.87468061 24 16 C23.67 16.66 23.34 17.32 23 18 C18.21392927 15.74292872 14.09632527 12.64160457 9.8125 9.5625 C8.98041016 8.97662109 8.14832031 8.39074219 7.29101562 7.78710938 C6.50017578 7.21927734 5.70933594 6.65144531 4.89453125 6.06640625 C4.17112549 5.55021729 3.44771973 5.03402832 2.70239258 4.50219727 C1 3 1 3 0 0 Z " fill="#1C284A" transform="translate(268,129)"/>
<path d="M0 0 C-3.8711138 3.3437141 -8.4273026 5.15154753 -13.0625 7.1875 C-13.87783203 7.55552734 -14.69316406 7.92355469 -15.53320312 8.30273438 C-16.31759766 8.65013672 -17.10199219 8.99753906 -17.91015625 9.35546875 C-18.62308838 9.67153076 -19.33602051 9.98759277 -20.07055664 10.31323242 C-22 11 -22 11 -25 11 C-24.72314453 9.12011719 -24.72314453 9.12011719 -24 7 C-22.43701172 5.90332031 -22.43701172 5.90332031 -20.4296875 5.078125 C-19.6975 4.77519531 -18.9653125 4.47226562 -18.2109375 4.16015625 C-17.44007812 3.85980469 -16.66921875 3.55945312 -15.875 3.25 C-15.12734375 2.93417969 -14.3796875 2.61835937 -13.609375 2.29296875 C-8.84438929 0.37535255 -5.12877571 -0.35370867 0 0 Z " fill="#1E294D" transform="translate(100,31)"/>
<path d="M0 0 C0.99 0 1.98 0 3 0 C3 0.66 3 1.32 3 2 C3.66 2.33 4.32 2.66 5 3 C3.68 3 2.36 3 1 3 C0.67 3.66 0.34 4.32 0 5 C-0.66 4.67 -1.32 4.34 -2 4 C-2 4.66 -2 5.32 -2 6 C-3.32 6.33 -4.64 6.66 -6 7 C-6 7.66 -6 8.32 -6 9 C-6.99 9 -7.98 9 -9 9 C-9.33 9.66 -9.66 10.32 -10 11 C-13.0625 11.625 -13.0625 11.625 -16 12 C-16 11.01 -16 10.02 -16 9 C-12.82686251 6.62014688 -9.56623117 4.71707427 -6 3 C-5.67 2.67 -5.34 2.34 -5 2 C-3.33382885 1.95936168 -1.66611905 1.957279 0 2 C0 1.34 0 0.68 0 0 Z " fill="#07123A" transform="translate(186,280)"/>
<path d="M0 0 C8.29130956 1.62726636 15.98316215 7.49863232 23 12 C22.67 12.66 22.34 13.32 22 14 C17.87015253 13.32889979 14.5437353 11.15686239 11 9.0625 C5.58374332 5.8771213 5.58374332 5.8771213 0 3 C0 2.01 0 1.02 0 0 Z " fill="#1C244B" transform="translate(244,83)"/>
<path d="M0 0 C0.66 0.33 1.32 0.66 2 1 C-2.15133157 5.48410364 -6.79385556 8.85035049 -11.8125 12.3125 C-12.99489258 13.13717773 -12.99489258 13.13717773 -14.20117188 13.97851562 C-16.13101938 15.32356086 -18.06396201 16.66388807 -20 18 C-20.99 17.34 -21.98 16.68 -23 16 C-20.10659406 13.89247958 -17.20985356 11.78958921 -14.3125 9.6875 C-13.49587891 9.09259766 -12.67925781 8.49769531 -11.83789062 7.88476562 C-3.0760171 1.53506781 -3.0760171 1.53506781 0 0 Z " fill="#1D274A" transform="translate(67,126)"/>
<path d="M0 0 C-0.37447028 2.44995721 -0.63670723 3.68271121 -2.53466797 5.34033203 C-3.50364014 5.91823486 -3.50364014 5.91823486 -4.4921875 6.5078125 C-5.19730469 6.93707031 -5.90242188 7.36632812 -6.62890625 7.80859375 C-7.37011719 8.24300781 -8.11132812 8.67742187 -8.875 9.125 C-10.33076154 10.00255046 -11.78649189 10.88015267 -13.2421875 11.7578125 C-14.21454346 12.33233154 -14.21454346 12.33233154 -15.20654297 12.91845703 C-16.83316435 13.89938988 -18.41951474 14.94634316 -20 16 C-20.66 15.34 -21.32 14.68 -22 14 C-3.69934641 0 -3.69934641 0 0 0 Z " fill="#1A244A" transform="translate(76,90)"/>
<path d="M0 0 C3.60571107 0.59283087 5.54429438 2.02741777 8.25 4.4375 C8.95640625 5.05496094 9.6628125 5.67242187 10.390625 6.30859375 C12 8 12 8 12 10 C12.66 10 13.32 10 14 10 C15.06775224 11.96466413 16.06553465 13.96855359 17 16 C16.67 16.66 16.34 17.32 16 18 C15.35933594 17.34773438 14.71867187 16.69546875 14.05859375 16.0234375 C9.20255636 11.116741 4.32262894 6.39695434 -1 2 C-0.67 1.34 -0.34 0.68 0 0 Z " fill="#1F2A4F" transform="translate(311,136)"/>
<path d="M0 0 C4.0480847 1.81501027 7.57154747 4.33606096 11.1875 6.875 C11.82880859 7.30941406 12.47011719 7.74382812 13.13085938 8.19140625 C17.84175527 11.50445447 17.84175527 11.50445447 18.6887207 14.15673828 C18.79144287 14.76501465 18.89416504 15.37329102 19 16 C18.34 16 17.68 16 17 16 C17 15.34 17 14.68 17 14 C15.93845703 13.62681641 15.93845703 13.62681641 14.85546875 13.24609375 C11.66275934 11.85283205 9.12087108 10.11992874 6.3125 8.0625 C5.35988281 7.37285156 4.40726563 6.68320313 3.42578125 5.97265625 C1 4 1 4 -1 1 C-0.67 0.67 -0.34 0.34 0 0 Z " fill="#1C2549" transform="translate(45,170)"/>
<path d="M0 0 C1.56100456 3.12200912 0.70167908 5.63832048 0.01171875 8.98046875 C-1.95638798 14.85439347 -5.55739776 19.892139 -9 25 C-9.66 24.67 -10.32 24.34 -11 24 C-10.33622128 20.23260726 -8.61289146 17.48766288 -6.625 14.25 C-3.83574327 9.57641993 -1.68832547 5.16428966 0 0 Z " fill="#1C264D" transform="translate(290,193)"/>
<path d="M0 0 C0 0.99 0 1.98 0 3 C-1.97946592 4.36363208 -3.9819245 5.69418644 -6 7 C-9.28939137 10.28939137 -9.56283464 13.45348023 -10 18 C-10.99 18 -11.98 18 -13 18 C-13.57898494 12.44174454 -12.59019138 9.3485517 -9.43359375 4.734375 C-6.6759799 1.39818821 -4.30566335 0 0 0 Z " fill="#1E2853" transform="translate(123,118)"/>
<path d="M0 0 C4.04135587 1.59930434 6.67907152 4.48660409 9.625 7.5625 C12.96402902 11.22714016 12.96402902 11.22714016 17 14 C17 14.66 17 15.32 17 16 C11.43572085 15.75898603 8.78146531 12.23981113 5.1875 8.4375 C4.59001953 7.82197266 3.99253906 7.20644531 3.37695312 6.57226562 C1.9087379 5.05706751 0.45310447 3.52969562 -1 2 C-0.67 1.34 -0.34 0.68 0 0 Z " fill="#1D284D" transform="translate(1,158)"/>
<path d="M0 0 C6.45353615 2.05764921 12.7361263 4.42383482 19 7 C19 7.66 19 8.32 19 9 C13.4860469 9.33715892 9.99561651 8.44112982 5.0625 6 C3.91910156 5.443125 2.77570313 4.88625 1.59765625 4.3125 C0.74042969 3.879375 -0.11679688 3.44625 -1 3 C-0.67 2.01 -0.34 1.02 0 0 Z " fill="#222D50" transform="translate(240,51)"/>
<path d="M0 0 C7.59 0.33 15.18 0.66 23 1 C22.67 1.99 22.34 2.98 22 4 C17.38 4 12.76 4 8 4 C8 3.34 8 2.68 8 2 C6.576875 2.2784375 6.576875 2.2784375 5.125 2.5625 C2 3 2 3 0 2 C0 1.34 0 0.68 0 0 Z " fill="#233051" transform="translate(151,205)"/>
<path d="M0 0 C2.48044315 3.72066472 2.44381173 6.86540474 2.625 11.1875 C2.66367187 11.93708984 2.70234375 12.68667969 2.7421875 13.45898438 C2.83628216 15.30559199 2.91922319 17.1527619 3 19 C2.01 19 1.02 19 0 19 C-1.18695553 15.43913342 -1.35095418 12.02668976 -1.5625 8.3125 C-1.60568359 7.61060547 -1.64886719 6.90871094 -1.69335938 6.18554688 C-1.7991736 4.45724794 -1.90006581 2.7286489 -2 1 C-1.34 0.67 -0.68 0.34 0 0 Z " fill="#242D51" transform="translate(27,73)"/>
<path d="M0 0 C3.66881155 0.70554068 6.70450534 2.27735506 10 4 C9.34 8.29 8.68 12.58 8 17 C7.34 16.67 6.68 16.34 6 16 C6 12.37 6 8.74 6 5 C4.02 4.34 2.04 3.68 0 3 C0 2.01 0 1.02 0 0 Z " fill="#253356" transform="translate(283,70)"/>
<path d="M0 0 C0.99 2.97 1.98 5.94 3 9 C7.40114397 8.49701212 9.71195019 6.91227269 13 4 C13.66 4.33 14.32 4.66 15 5 C13.92130607 5.96355244 12.83681257 6.92061417 11.75 7.875 C10.84507812 8.67550781 10.84507812 8.67550781 9.921875 9.4921875 C7.25330299 11.58582326 5.33716374 13.08296271 1.859375 12.8671875 C0 12 0 12 -1.046875 10.2578125 C-1.27890625 9.55398437 -1.5109375 8.85015625 -1.75 8.125 C-1.99234375 7.42632812 -2.2346875 6.72765625 -2.484375 6.0078125 C-3 4 -3 4 -3 1 C-1 0 -1 0 0 0 Z " fill="#33759F" transform="translate(186,189)"/>
<path d="M0 0 C0.66 0.33 1.32 0.66 2 1 C2 1.66 2 2.32 2 3 C-0.38846832 4.20474943 -2.78390152 5.38864958 -5.1875 6.5625 C-5.86103516 6.90474609 -6.53457031 7.24699219 -7.22851562 7.59960938 C-10.47102455 9.16550393 -12.33482186 10.06347452 -15.98828125 9.71484375 C-16.65214844 9.47894531 -17.31601563 9.24304687 -18 9 C-16.44464191 5.88928381 -13.88562714 5.66683615 -10.6875 4.5 C-6.10637354 2.84526208 -6.10637354 2.84526208 -1.70703125 0.78125 C-1.14371094 0.5234375 -0.58039063 0.265625 0 0 Z " fill="#1C254D" transform="translate(84,54)"/>
<path d="M0 0 C-2.39421706 2.71925978 -4.85695561 4.04281172 -8.125 5.5625 C-11.76216915 7.04252349 -11.76216915 7.04252349 -14 10 C-14.99 10 -15.98 10 -17 10 C-16.8046875 7.671875 -16.8046875 7.671875 -16 5 C-13.8203125 3.453125 -13.8203125 3.453125 -11.125 2.25 C-10.24070312 1.84265625 -9.35640625 1.4353125 -8.4453125 1.015625 C-3.32859175 -1.10953058 -3.32859175 -1.10953058 0 0 Z " fill="#1B244D" transform="translate(57,68)"/>
<path d="M0 0 C2.47045803 3.81615468 2.43831912 7.84744248 2.625 12.25 C2.66367187 12.99507812 2.70234375 13.74015625 2.7421875 14.5078125 C2.83605108 16.3381524 2.91909718 18.16904143 3 20 C2.01 20 1.02 20 0 20 C-1.06375135 16.80874596 -1.13335484 14.47529029 -1.125 11.125 C-1.12757812 10.09632812 -1.13015625 9.06765625 -1.1328125 8.0078125 C-1.00995061 5.225352 -0.62944236 2.70760126 0 0 Z " fill="#2E3755" transform="translate(30,95)"/>
<path d="M0 0 C5.875 4.75 5.875 4.75 7 7 C7.12145993 8.83037287 7.17543185 10.66564133 7.1875 12.5 C7.20167969 13.4796875 7.21585938 14.459375 7.23046875 15.46875 C7 18 7 18 5 20 C4.34 20 3.68 20 3 20 C3.09539062 19.41992188 3.19078125 18.83984375 3.2890625 18.2421875 C3.99197732 13.28909007 4.21457982 9.6622733 2 5 C1.34 4.67 0.68 4.34 0 4 C0 2.68 0 1.36 0 0 Z " fill="#1D2B54" transform="translate(217,154)"/>
<path d="M0 0 C0.66 0 1.32 0 2 0 C3.01702117 3.0510635 3.16582083 5.24199061 3.1875 8.4375 C3.20167969 9.38496094 3.21585937 10.33242187 3.23046875 11.30859375 C2.99614518 14.04501644 2.39701383 15.66428123 1 18 C0.34 18 -0.32 18 -1 18 C-0.505 9.09 -0.505 9.09 0 0 Z " fill="#232E50" transform="translate(305,65)"/>
<path d="M0 0 C-0.99 0.33 -1.98 0.66 -3 1 C-3 1.66 -3 2.32 -3 3 C-5.24932227 3.1954625 -7.49950142 3.38108226 -9.75 3.5625 C-11.62945312 3.71912109 -11.62945312 3.71912109 -13.546875 3.87890625 C-16.39452364 3.97876723 -18.34286067 3.90584295 -21 3 C-21 2.34 -21 1.68 -21 1 C-13.97195301 0.14626761 -7.07721931 -0.12109311 0 0 Z " fill="#1D274A" transform="translate(163,63)"/>
<path d="M0 0 C0.66 0.33 1.32 0.66 2 1 C0.57544351 4.70384688 -1.80439725 6.90283071 -4.66015625 9.53515625 C-6.25108699 11.07501668 -6.25108699 11.07501668 -7 14 C-8.77734375 15.7890625 -8.77734375 15.7890625 -10.9375 17.625 C-11.64777344 18.23601562 -12.35804688 18.84703125 -13.08984375 19.4765625 C-15 21 -15 21 -17 22 C-15.31592806 17.72182966 -12.19231982 14.81885237 -9.0625 11.5625 C-5.54671297 7.90355517 -2.4211658 4.51332301 0 0 Z M-19 22 C-18.01 22.495 -18.01 22.495 -17 23 C-17.99 23.495 -17.99 23.495 -19 24 C-19 23.34 -19 22.68 -19 22 Z " fill="#0B1845" transform="translate(261,212)"/>
<path d="M0 0 C1.07765625 0.00902344 2.1553125 0.01804687 3.265625 0.02734375 C4.08546875 0.03894531 4.9053125 0.05054687 5.75 0.0625 C6.08 1.0525 6.41 2.0425 6.75 3.0625 C0.81 3.3925 -5.13 3.7225 -11.25 4.0625 C-10.92 3.0725 -10.59 2.0825 -10.25 1.0625 C-6.95298938 -0.28557677 -3.5145039 -0.03820113 0 0 Z " fill="#293256" transform="translate(152.25,73.9375)"/>
<path d="M0 0 C3.3 0.66 6.6 1.32 10 2 C8.94890486 3.75687372 7.88356877 5.50523126 6.8125 7.25 C6.22082031 8.22453125 5.62914062 9.1990625 5.01953125 10.203125 C2.95135139 13.06737409 0.84720076 14.93467302 -2 17 C-0.86558395 14.44756388 0.32422023 12.60902855 2.125 10.4375 C4.30485538 8.11622611 4.30485538 8.11622611 4 5 C2.68 4.34 1.36 3.68 0 3 C0 2.01 0 1.02 0 0 Z " fill="#286A97" transform="translate(203,176)"/>
<path d="M0 0 C0.33 0.99 0.66 1.98 1 3 C0.26394531 3.39832031 -0.47210938 3.79664062 -1.23046875 4.20703125 C-2.20628906 4.73683594 -3.18210937 5.26664062 -4.1875 5.8125 C-5.63189453 6.59560547 -5.63189453 6.59560547 -7.10546875 7.39453125 C-9.00913707 8.45041206 -10.88858826 9.55140641 -12.73828125 10.69921875 C-15 12 -15 12 -17 12 C-17 11.34 -17 10.68 -17 10 C-15.63875 9.38125 -15.63875 9.38125 -14.25 8.75 C-11.15106244 7.08134131 -9.41504833 5.49295311 -7 3 C-2.5 0 -2.5 0 0 0 Z " fill="#202B4D" transform="translate(69,69)"/>
<path d="M0 0 C0.99 0.33 1.98 0.66 3 1 C3.9140625 2.85546875 3.9140625 2.85546875 4.625 5.1875 C4.87121094 5.99445313 5.11742187 6.80140625 5.37109375 7.6328125 C6.10707723 10.40303604 6.63553309 13.15715807 7 16 C4 15 4 15 2.83203125 13.14453125 C0.84365378 8.59640346 -0.52031483 5.07306962 0 0 Z " fill="#202C4D" transform="translate(41,193)"/>
<path d="M0 0 C5.68502535 1.64566523 10.76681636 4.29032784 16 7 C16 7.33 16 7.66 16 8 C11.32051602 8.27771418 8.32416664 7.54837397 4.125 5.5 C3.15820312 5.0359375 2.19140625 4.571875 1.1953125 4.09375 C0.47085938 3.7328125 -0.25359375 3.371875 -1 3 C-0.67 2.01 -0.34 1.02 0 0 Z " fill="#20284E" transform="translate(220,42)"/>
<path d="M0 0 C-2.35673938 3.53510907 -4.22748643 4.3818803 -8 6.25 C-9.0725 6.79140625 -10.145 7.3328125 -11.25 7.890625 C-12.1575 8.25671875 -13.065 8.6228125 -14 9 C-14.66 8.67 -15.32 8.34 -16 8 C-14.59241902 3.77725706 -12.16792713 3.03568317 -8.3671875 1.0078125 C-5.45798289 -0.23075976 -3.12603337 -0.40077351 0 0 Z " fill="#0A163E" transform="translate(152,27)"/>
<path d="M0 0 C0.0825 0.61875 0.165 1.2375 0.25 1.875 C0.79253008 4.14026135 0.79253008 4.14026135 2.8125 5.0625 C3.8953125 5.5265625 3.8953125 5.5265625 5 6 C6.35113205 6.97581759 7.68946944 7.97029741 9 9 C8.67 10.32 8.34 11.64 8 13 C6.70684939 12.04367001 5.41553147 11.08486149 4.125 10.125 C3.40570313 9.59132812 2.68640625 9.05765625 1.9453125 8.5078125 C0 7 0 7 -2 5 C-2 3.68 -2 2.36 -2 1 C-1.34 0.67 -0.68 0.34 0 0 Z " fill="#172246" transform="translate(30,154)"/>
<path d="M0 0 C6.75 0.875 6.75 0.875 9 2 C9 2.66 9 3.32 9 4 C11.64 4.66 14.28 5.32 17 6 C17 6.66 17 7.32 17 8 C17.61875 8.0825 18.2375 8.165 18.875 8.25 C21 9 21 9 22.25 11.0625 C22.4975 11.701875 22.745 12.34125 23 13 C20.59612625 11.8461406 18.30539699 10.59481491 16 9.25 C10.80028957 6.24622855 5.38447861 3.65245252 0 1 C0 0.67 0 0.34 0 0 Z " fill="#316B94" transform="translate(177,108)"/>
<path d="M0 0 C0.33 0 0.66 0 1 0 C1 3.63 1 7.26 1 11 C-0.98 11.99 -0.98 11.99 -3 13 C-4 12 -4 12 -4.0625 8.4375 C-4.041875 7.303125 -4.02125 6.16875 -4 5 C-3.34 5 -2.68 5 -2 5 C-1.34 3.35 -0.68 1.7 0 0 Z " fill="#263556" transform="translate(48,96)"/>
<path d="M0 0 C2.48344905 3.72517358 2.75857382 6.68561142 2 11 C0.47430089 14.50093457 -1.36570338 17.24025467 -4.890625 18.87890625 C-6.8125 19.4375 -6.8125 19.4375 -10 20 C-10 19.34 -10 18.68 -10 18 C-8.6078125 17.1028125 -8.6078125 17.1028125 -7.1875 16.1875 C-3.95976402 13.97238707 -2.85666346 12.34199424 -1 9 C-0.34 9 0.32 9 1 9 C0.67 6.03 0.34 3.06 0 0 Z " fill="#7BB6D8" transform="translate(140,127)"/>
<path d="M0 0 C0.33 0.99 0.66 1.98 1 3 C-0.76755526 3.84026396 -2.53917263 4.67198722 -4.3125 5.5 C-5.79169922 6.19609375 -5.79169922 6.19609375 -7.30078125 6.90625 C-10 8 -10 8 -13 8 C-11.93161852 4.90169371 -11.05608991 4.03365395 -8.1875 2.3125 C-5.4047611 1.16666633 -2.96468187 0.43598263 0 0 Z " fill="#1F2A4D" transform="translate(72,41)"/>
<path d="M0 0 C2.58926331 2.58926331 2.37398043 4.02705279 2.625 7.625 C2.69976562 8.62789062 2.77453125 9.63078125 2.8515625 10.6640625 C2.92503906 11.82035156 2.92503906 11.82035156 3 13 C0.03 12.01 -2.94 11.02 -6 10 C-5.67 9.01 -5.34 8.02 -5 7 C-3.02 7.495 -3.02 7.495 -1 8 C-0.67 5.36 -0.34 2.72 0 0 Z " fill="#1D588E" transform="translate(214,144)"/>
<path d="M0 0 C0.66 0.33 1.32 0.66 2 1 C1.54109375 1.49628906 1.0821875 1.99257812 0.609375 2.50390625 C-3.25719293 6.78474931 -6.33517615 10.88353821 -9 16 C-9.66 14.68 -10.32 13.36 -11 12 C-7.73911534 7.10867301 -4.66132863 3.57729872 0 0 Z " fill="#212D4E" transform="translate(119,111)"/>
<path d="M0 0 C0.66 0.33 1.32 0.66 2 1 C2 1.99 2 2.98 2 4 C0.948125 4.2784375 0.948125 4.2784375 -0.125 4.5625 C-4.09640051 6.54820026 -6.3073418 9.53933276 -9 13 C-9.99 12.67 -10.98 12.34 -12 12 C-12 12.66 -12 13.32 -12 14 C-12.66 14 -13.32 14 -14 14 C-12.50958227 10.20620942 -10.30937488 8.31656242 -7 6 C-6.34 6 -5.68 6 -5 6 C-5 5.34 -5 4.68 -5 4 C-3.37373596 2.61767557 -1.7074998 1.28062485 0 0 Z " fill="#0B163D" transform="translate(218,257)"/>
<path d="M0 0 C5.23272633 1.63958758 10.15196636 3.38952035 15 6 C15 6.33 15 6.66 15 7 C9.33557626 6.63495936 4.99296295 5.9445679 0 3 C0 2.01 0 1.02 0 0 Z " fill="#212C50" transform="translate(260,60)"/>
<path d="M0 0 C1.25955231 3.77865693 0.48087189 5.03411786 -0.9375 8.6875 C-1.31777344 9.68136719 -1.69804688 10.67523438 -2.08984375 11.69921875 C-2.39019531 12.45847656 -2.69054687 13.21773437 -3 14 C-3.99 14 -4.98 14 -6 14 C-5.71517632 12.58194169 -5.42181856 11.16559621 -5.125 9.75 C-4.96257812 8.96109375 -4.80015625 8.1721875 -4.6328125 7.359375 C-4.00106448 5.00396882 -3.24959008 3.09190636 -2 1 C-1.34 0.67 -0.68 0.34 0 0 Z " fill="#1C2A4F" transform="translate(107,128)"/>
<path d="M0 0 C0.66 0.33 1.32 0.66 2 1 C0.35 5.95 -1.3 10.9 -3 16 C-3.66 16 -4.32 16 -5 16 C-4.91276622 14.22825181 -4.80458345 12.45752623 -4.6875 10.6875 C-4.62949219 9.70136719 -4.57148438 8.71523437 -4.51171875 7.69921875 C-3.943177 4.70026953 -3.28455592 3.90869067 -1 2 C-0.67 1.34 -0.34 0.68 0 0 Z " fill="#6BBBD7" transform="translate(150,185)"/>
<path d="M0 0 C1.98 0.495 1.98 0.495 4 1 C4 1.66 4 2.32 4 3 C3.34 3 2.68 3 2 3 C-0.39709442 10.83811825 0.74687991 20.01135941 2 28 C1.34 28 0.68 28 0 28 C-0.79746733 23.09494302 -1.13522696 18.42314521 -1.125 13.4375 C-1.12757812 12.17808594 -1.13015625 10.91867188 -1.1328125 9.62109375 C-1.0116308 6.31711034 -0.62922955 3.24103157 0 0 Z " fill="#416282" transform="translate(116,144)"/>
<path d="M0 0 C3.49995249 1.16665083 3.816742 1.87011757 5.625 4.9375 C6.05039062 5.64777344 6.47578125 6.35804688 6.9140625 7.08984375 C7.64415463 8.37407056 8.33935289 9.67870578 9 11 C6.8125 11 6.8125 11 4 10 C1.9503454 7.53933287 0.26505179 4.94576346 -1 2 C-0.67 1.34 -0.34 0.68 0 0 Z " fill="#1B2747" transform="translate(48,209)"/>
<path d="M0 0 C-3.65120544 3.33370932 -8.21633909 4.97807612 -13 6 C-13.99 5.67 -14.98 5.34 -16 5 C-14.3970947 4.18501438 -12.79262722 3.37310073 -11.1875 2.5625 C-10.29417969 2.11003906 -9.40085937 1.65757813 -8.48046875 1.19140625 C-3.54193548 -1.18064516 -3.54193548 -1.18064516 0 0 Z " fill="#19244E" transform="translate(100,111)"/>
<path d="M0 0 C2 2 2 2 2.265625 4.05859375 C2.26046875 4.84363281 2.2553125 5.62867187 2.25 6.4375 C2.25515625 7.21996094 2.2603125 8.00242187 2.265625 8.80859375 C1.87388456 12.04045235 0.24942251 13.75057749 -2 16 C-1.85975781 13.52039864 -1.7130815 11.04147598 -1.5625 8.5625 C-1.52318359 7.85544922 -1.48386719 7.14839844 -1.44335938 6.41992188 C-1.11328125 1.11328125 -1.11328125 1.11328125 0 0 Z " fill="#263051" transform="translate(302,96)"/>
<path d="M0 0 C4.29951803 1.59241408 6.39671947 4.35540725 9 8 C8.67 8.99 8.34 9.98 8 11 C2.25 6.375 2.25 6.375 0 3 C0 2.01 0 1.02 0 0 Z " fill="#1C2749" transform="translate(57,223)"/>
<path d="M0 0 C1.32 0.33 2.64 0.66 4 1 C5.046875 3.28515625 5.046875 3.28515625 5.75 6.0625 C5.99234375 6.98160156 6.2346875 7.90070313 6.484375 8.84765625 C6.65453125 9.55792969 6.8246875 10.26820313 7 11 C6.01 11.33 5.02 11.66 4 12 C2.68 8.04 1.36 4.08 0 0 Z " fill="#3A8DAF" transform="translate(178,177)"/>
<path d="M0 0 C0 0.99 0 1.98 0 3 C-7.92 4.485 -7.92 4.485 -16 6 C-15.67 5.34 -15.34 4.68 -15 4 C-12.67843403 3.59270772 -10.3431213 3.25561323 -8 3 C-8 2.34 -8 1.68 -8 1 C-5.07175348 0.02391783 -3.04386724 -0.08226668 0 0 Z " fill="#2B3558" transform="translate(139,76)"/>
<path d="M0 0 C0.33 0.99 0.66 1.98 1 3 C-5.93 2.67 -12.86 2.34 -20 2 C-20 1.67 -20 1.34 -20 1 C-13.31184516 0.37577221 -6.71884955 -0.12920865 0 0 Z " fill="#2B3857" transform="translate(191,75)"/>
<path d="M0 0 C0 0.99 0 1.98 0 3 C-3.96 4.98 -3.96 4.98 -8 7 C-8.66 5.68 -9.32 4.36 -10 3 C-6.27034861 0.96564469 -4.33094958 0 0 0 Z " fill="#263358" transform="translate(161,22)"/>
<path d="M0 0 C1.65 1.32 3.3 2.64 5 4 C4.8125 5.8125 4.8125 5.8125 4 8 C1.4375 9.75 1.4375 9.75 -1 11 C-0.608125 10.0925 -0.21625 9.185 0.1875 8.25 C1.39067945 5.03947071 1.39067945 5.03947071 -0.375 2.625 C-0.91125 2.08875 -1.4475 1.5525 -2 1 C-1.34 0.67 -0.68 0.34 0 0 Z " fill="#1C274A" transform="translate(300,152)"/>
<path d="M0 0 C2.97 0.99 5.94 1.98 9 3 C9 4.32 9 5.64 9 7 C5.9168649 5.80100302 2.93720508 4.52299523 0 3 C0 2.01 0 1.02 0 0 Z " fill="#273358" transform="translate(171,21)"/>
<path d="M0 0 C0.33 0 0.66 0 1 0 C1.33 4.29 1.66 8.58 2 13 C1.34 13 0.68 13 0 13 C-2.22641709 8.67813153 -1.9957658 5.70725649 -1 1 C-0.67 0.67 -0.34 0.34 0 0 Z " fill="#1D284A" transform="translate(102,163)"/>
<path d="M0 0 C0.66 0.33 1.32 0.66 2 1 C2 1.99 2 2.98 2 4 C0.04690112 5.40113616 -1.95708818 6.73339467 -4 8 C-4.66 8.66 -5.32 9.32 -6 10 C-6.33 8.35 -6.66 6.7 -7 5 C-6.34 5 -5.68 5 -5 5 C-5 4.34 -5 3.68 -5 3 C-2.625 1.3125 -2.625 1.3125 0 0 Z " fill="#2A71AA" transform="translate(205,152)"/>
<path d="M0 0 C0.33 0 0.66 0 1 0 C0.979375 1.0725 0.95875 2.145 0.9375 3.25 C0.9857984 6.14790424 1.13155885 8.28612141 2 11 C2.66 11 3.32 11 4 11 C3.67 11.99 3.34 12.98 3 14 C2.34 14 1.68 14 1 14 C-2.68024726 5.62067997 -2.68024726 5.62067997 -1 1 C-0.67 0.67 -0.34 0.34 0 0 Z " fill="#458DB1" transform="translate(176,161)"/>
<path d="M0 0 C0.99 0.33 1.98 0.66 3 1 C3.33 3.97 3.66 6.94 4 10 C3.01 10 2.02 10 1 10 C-0.1577506 6.52674819 -0.06866652 3.63932552 0 0 Z " fill="#354162" transform="translate(284,97)"/>
<path d="M0 0 C5.28 0.33 10.56 0.66 16 1 C12.41093775 2.79453113 11.19306287 3.29343623 7.4375 3.3125 C6.29087891 3.33763672 6.29087891 3.33763672 5.12109375 3.36328125 C3 3 3 3 0 0 Z " fill="#121D42" transform="translate(171,73)"/>
<path d="M0 0 C-0.66 2.31 -1.32 4.62 -2 7 C-4.97 6.505 -4.97 6.505 -8 6 C-7.8125 4.125 -7.8125 4.125 -7 2 C-4.55683729 0.74709605 -2.75474605 0 0 0 Z " fill="#0B143E" transform="translate(207,209)"/>
<path d="M0 0 C0.99 0.495 0.99 0.495 2 1 C1.01 1.495 1.01 1.495 0 2 C0 1.34 0 0.68 0 0 Z M-1 2 C-0.34 2.33 0.32 2.66 1 3 C0.67 5.97 0.34 8.94 0 12 C-0.99 12 -1.98 12 -3 12 C-3.25 5.375 -3.25 5.375 -1 2 Z " fill="#2C3657" transform="translate(113,124)"/>
<path d="M0 0 C-0.33 0.99 -0.66 1.98 -1 3 C-2.41543415 3.19658808 -3.83244031 3.38187546 -5.25 3.5625 C-6.03890625 3.66691406 -6.8278125 3.77132812 -7.640625 3.87890625 C-10.00532874 4.00027349 -11.7511037 3.69633257 -14 3 C-4.58997722 -0.44419134 -4.58997722 -0.44419134 0 0 Z " fill="#1A244B" transform="translate(133,67)"/>
<path d="M0 0 C1.65 0 3.3 0 5 0 C5 0.33 5 0.66 5 1 C3.35 1 1.7 1 0 1 C0 0.67 0 0.34 0 0 Z M0 1 C0.33 1.99 0.66 2.98 1 4 C-4.61 3.67 -10.22 3.34 -16 3 C-16 2.67 -16 2.34 -16 2 C-10.65097076 1.40801257 -5.39115154 0.85812759 0 1 Z " fill="#070D29" transform="translate(185,63)"/>
<path d="M0 0 C0.33 0.66 0.66 1.32 1 2 C-1.34375 8.5625 -1.34375 8.5625 -5 11 C-5.33 10.01 -5.66 9.02 -6 8 C-4.78515625 5.95703125 -4.78515625 5.95703125 -3.0625 3.8125 C-2.49660156 3.09707031 -1.93070312 2.38164062 -1.34765625 1.64453125 C-0.90292969 1.10183594 -0.45820313 0.55914062 0 0 Z " fill="#1F294E" transform="translate(277,218)"/>
<path d="M0 0 C3.81684226 1.55500981 6.19195732 4.03595495 9 7 C8.01 7.33 7.02 7.66 6 8 C4.17578125 6.78515625 4.17578125 6.78515625 2.3125 5.0625 C1.68988281 4.49660156 1.06726563 3.93070312 0.42578125 3.34765625 C-0.04472656 2.90292969 -0.51523437 2.45820312 -1 2 C-0.67 1.34 -0.34 0.68 0 0 Z " fill="#1D294D" transform="translate(273,101)"/>
<path d="M0 0 C2.10478604 0.11409682 4.20884577 0.24165361 6.3125 0.375 C7.48425781 0.44460937 8.65601563 0.51421875 9.86328125 0.5859375 C13 1 13 1 16 3 C16 3.66 16 4.32 16 5 C14.26969709 4.71515154 12.54079286 4.42180062 10.8125 4.125 C9.84957031 3.96257812 8.88664063 3.80015625 7.89453125 3.6328125 C5.08967396 3.01960483 2.62775253 2.14333657 0 1 C0 0.67 0 0.34 0 0 Z " fill="#293355" transform="translate(204,80)"/>
<path d="M0 0 C0.71285156 0.15984375 1.42570312 0.3196875 2.16015625 0.484375 C2.74667969 0.73703125 3.33320312 0.9896875 3.9375 1.25 C4.2675 2.24 4.5975 3.23 4.9375 4.25 C0.38012737 3.81179109 -2.63903445 3.39958831 -6.0625 0.25 C-3.5679485 -0.99727575 -2.66878506 -0.63934597 0 0 Z " fill="#1C254B" transform="translate(113.0625,207.75)"/>
<path d="M0 0 C2.64 0.33 5.28 0.66 8 1 C8.33 1.99 8.66 2.98 9 4 C6.03 3.67 3.06 3.34 0 3 C0 2.01 0 1.02 0 0 Z " fill="#273458" transform="translate(194,76)"/>
<path d="M0 0 C-0.598125 0.268125 -1.19625 0.53625 -1.8125 0.8125 C-4.0299713 1.87296728 -4.0299713 1.87296728 -5.5 3.5625 C-7.27460185 5.26316011 -8.61006256 5.58794182 -11 6 C-11.33 5.01 -11.66 4.02 -12 3 C-10.3789897 2.30314502 -8.75303934 1.61777139 -7.125 0.9375 C-6.22007813 0.55464844 -5.31515625 0.17179687 -4.3828125 -0.22265625 C-2 -1 -2 -1 0 0 Z " fill="#20294F" transform="translate(123,39)"/>
<path d="M0 0 C0.33 0.66 0.66 1.32 1 2 C4.02934491 2.65772428 4.02934491 2.65772428 7 3 C7 3.99 7 4.98 7 6 C5.68428397 5.7452486 4.37239624 5.47065859 3.0625 5.1875 C2.33160156 5.03667969 1.60070312 4.88585937 0.84765625 4.73046875 C0.23792969 4.48941406 -0.37179688 4.24835937 -1 4 C-1.33 3.01 -1.66 2.02 -2 1 C-1.34 0.67 -0.68 0.34 0 0 Z " fill="#05133B" transform="translate(183,25)"/>
<path d="M0 0 C0 0.99 0 1.98 0 3 C-5.17578125 6.22265625 -5.17578125 6.22265625 -7 7 C-7.99 6.67 -8.98 6.34 -10 6 C-6.87567603 3.47650757 -3.61939504 1.72743854 0 0 Z " fill="#061131" transform="translate(247,195)"/>
<path d="M0 0 C0.33 0.99 0.66 1.98 1 3 C-1.31 4.65 -3.62 6.3 -6 8 C-6.66 7.34 -7.32 6.68 -8 6 C-5.36 4.02 -2.72 2.04 0 0 Z " fill="#202952" transform="translate(62,98)"/>
<path d="M0 0 C1.98 0.495 1.98 0.495 4 1 C4 2.65 4 4.3 4 6 C2.35 6 0.7 6 -1 6 C-0.67 4.02 -0.34 2.04 0 0 Z " fill="#1B2648" transform="translate(329,154)"/>
<path d="M0 0 C1.485 0.99 1.485 0.99 3 2 C3.51171875 4.6015625 3.51171875 4.6015625 3.6875 7.625 C3.75324219 8.62789062 3.81898438 9.63078125 3.88671875 10.6640625 C3.92410156 11.43492187 3.96148437 12.20578125 4 13 C3.34 13 2.68 13 2 13 C1.66127487 11.58461283 1.32925376 10.16762037 1 8.75 C0.814375 7.96109375 0.62875 7.1721875 0.4375 6.359375 C0 4 0 4 0 0 Z " fill="#6DAEC6" transform="translate(137,123)"/>
<path d="M0 0 C2.31 0 4.62 0 7 0 C3.63263969 2.82858266 0.12548042 4.4998253 -4 6 C-4.99 5.67 -5.98 5.34 -7 5 C-5.5459375 4.5978125 -5.5459375 4.5978125 -4.0625 4.1875 C-3.051875 3.795625 -2.04125 3.40375 -1 3 C-0.67 2.01 -0.34 1.02 0 0 Z " fill="#273152" transform="translate(93,31)"/>
<path d="M0 0 C0.66 0.99 1.32 1.98 2 3 C0.25 5.0625 0.25 5.0625 -2 7 C-3.32 6.67 -4.64 6.34 -6 6 C-4.02 4.02 -2.04 2.04 0 0 Z " fill="#19274D" transform="translate(223,246)"/>
<path d="M0 0 C0.66 0.33 1.32 0.66 2 1 C0.34908222 5.29238623 -2.73754566 7.8793915 -6 11 C-6.66 10.67 -7.32 10.34 -8 10 C-7.59007812 9.52949219 -7.18015625 9.05898437 -6.7578125 8.57421875 C-6.21898437 7.95160156 -5.68015625 7.32898438 -5.125 6.6875 C-4.59132813 6.07261719 -4.05765625 5.45773438 -3.5078125 4.82421875 C-1.8359553 2.86501788 -1.8359553 2.86501788 0 0 Z " fill="#0D143A" transform="translate(261,212)"/>
<path d="M0 0 C3.36720387 1.39332574 4.9859524 2.9789286 7 6 C5.68 6 4.36 6 3 6 C0.75 3.5 0.75 3.5 -1 1 C-0.67 0.67 -0.34 0.34 0 0 Z " fill="#263052" transform="translate(1,158)"/>
<path d="M0 0 C0.66 0.33 1.32 0.66 2 1 C1.01 1 0.02 1 -1 1 C-0.67 0.67 -0.34 0.34 0 0 Z M-1 2 C-1 2.66 -1 3.32 -1 4 C-3.31 4.66 -5.62 5.32 -8 6 C-8.33 5.01 -8.66 4.02 -9 3 C-6.10765685 2.17361624 -4.11257569 2 -1 2 Z " fill="#1D2650" transform="translate(125,99)"/>
<path d="M0 0 C4.29 0.99 8.58 1.98 13 3 C12.67 3.66 12.34 4.32 12 5 C10.3745692 4.85904936 8.74965949 4.71207913 7.125 4.5625 C6.22007812 4.48128906 5.31515625 4.40007812 4.3828125 4.31640625 C2 4 2 4 0 3 C0 2.01 0 1.02 0 0 Z " fill="#1C224D" transform="translate(202,77)"/>
<path d="M0 0 C3.1875 0.875 3.1875 0.875 6 2 C6 2.99 6 3.98 6 5 C3.03 4.01 0.06 3.02 -3 2 C-2.01 1.34 -1.02 0.68 0 0 Z " fill="#242D51" transform="translate(268,44)"/>
<path d="M0 0 C2.31 0.33 4.62 0.66 7 1 C7.33 2.32 7.66 3.64 8 5 C5.03 4.01 2.06 3.02 -1 2 C-0.67 1.34 -0.34 0.68 0 0 Z " fill="#1E2847" transform="translate(185,9)"/>
<path d="M0 0 C0.66 0.99 1.32 1.98 2 3 C0.35 4.65 -1.3 6.3 -3 8 C-3.99 7.67 -4.98 7.34 -6 7 C-4.02 4.69 -2.04 2.38 0 0 Z " fill="#192749" transform="translate(238,230)"/>
<path d="M0 0 C0.99 0.33 1.98 0.66 3 1 C3 1.66 3 2.32 3 3 C3.66 3 4.32 3 5 3 C5.33 3.99 5.66 4.98 6 6 C5.34 6.66 4.68 7.32 4 8 C0 3.375 0 3.375 0 0 Z " fill="#1A284E" transform="translate(68,211)"/>
<path d="M0 0 C0.66 0.33 1.32 0.66 2 1 C2 3.31 2 5.62 2 8 C1.01 8.33 0.02 8.66 -1 9 C-1.09765625 2.84765625 -1.09765625 2.84765625 -1 1 C-0.67 0.67 -0.34 0.34 0 0 Z " fill="#273052" transform="translate(304,84)"/>
<path d="M0 0 C1.3921875 0.3403125 1.3921875 0.3403125 2.8125 0.6875 C2.1525 2.0075 1.4925 3.3275 0.8125 4.6875 C-1.4975 4.0275 -3.8075 3.3675 -6.1875 2.6875 C-4.14987265 -0.14253799 -3.59070275 -0.35202968 0 0 Z " fill="#111C3A" transform="translate(223.1875,72.3125)"/>
<path d="M0 0 C-1.76505435 0.86604534 -3.53728074 1.71748642 -5.3125 2.5625 C-6.79169922 3.27599609 -6.79169922 3.27599609 -8.30078125 4.00390625 C-11 5 -11 5 -14 4 C-5.16 -1.72 -5.16 -1.72 0 0 Z " fill="#212B4E" transform="translate(123,22)"/>
<path d="M0 0 C0 3 0 3 -2.25 5.5625 C-4.51797524 7.57275078 -6.23189141 8.87225206 -9 10 C-7.61811547 6.78956118 -6.07578097 4.95063635 -3.375 2.75 C-2.74335938 2.22921875 -2.11171875 1.7084375 -1.4609375 1.171875 C-0.73777344 0.59179688 -0.73777344 0.59179688 0 0 Z " fill="#0C153E" transform="translate(301,157)"/>
<path d="M0 0 C7.75 0.75 7.75 0.75 10 3 C5.94568308 4.15837626 3.78187881 3.83691257 0 2 C0 1.34 0 0.68 0 0 Z " fill="#1A264A" transform="translate(217,104)"/>
<path d="M0 0 C2.26609984 4.53219967 1.92735976 6.17772925 1 11 C0.34 11 -0.32 11 -1 11 C-0.67 7.37 -0.34 3.74 0 0 Z " fill="#253051" transform="translate(30,95)"/>
<path d="M0 0 C2.62113708 0 4.50935112 0.31292445 7 1 C7.33 2.32 7.66 3.64 8 5 C5.03 4.01 2.06 3.02 -1 2 C-0.67 1.34 -0.34 0.68 0 0 Z " fill="#293555" transform="translate(298,58)"/>
<path d="M0 0 C1.46184058 0.22860058 2.91955419 0.48370392 4.375 0.75 C5.59316406 0.95882812 5.59316406 0.95882812 6.8359375 1.171875 C9 2 9 2 10.2890625 4.078125 C10.64097656 5.02945313 10.64097656 5.02945313 11 6 C9.35 5.67 7.7 5.34 6 5 C6 4.34 6 3.68 6 3 C3.03 2.505 3.03 2.505 0 2 C0 1.34 0 0.68 0 0 Z " fill="#2E4E6D" transform="translate(139,200)"/>
<path d="M0 0 C0.66 0 1.32 0 2 0 C2 2.97 2 5.94 2 9 C1.34 9 0.68 9 0 9 C-0.87890625 2.84765625 -0.87890625 2.84765625 -1 1 C-0.67 0.67 -0.34 0.34 0 0 Z " fill="#2D375A" transform="translate(32,119)"/>
<path d="M0 0 C0.66 0.99 1.32 1.98 2 3 C-0.17424117 5.50037734 -1.73045798 6.43628586 -5 7 C-3.70700306 4.11562221 -2.34058637 2.12780579 0 0 Z " fill="#1B2748" transform="translate(266,232)"/>
<path d="M0 0 C0.33 0.66 0.66 1.32 1 2 C0.01 1.67 -0.98 1.34 -2 1 C-1.34 0.67 -0.68 0.34 0 0 Z M-3 2 C-2.67 2.66 -2.34 3.32 -2 4 C-2.9375 6.125 -2.9375 6.125 -4 8 C-5.32 7.67 -6.64 7.34 -8 7 C-6.35 5.35 -4.7 3.7 -3 2 Z " fill="#1E284B" transform="translate(324,164)"/>
<path d="M0 0 C0 2.31 0 4.62 0 7 C-0.99 7.33 -1.98 7.66 -3 8 C-3 5.69 -3 3.38 -3 1 C-1 0 -1 0 0 0 Z " fill="#212C4C" transform="translate(103,143)"/>
<path d="M0 0 C1.65 0 3.3 0 5 0 C5.33 1.32 5.66 2.64 6 4 C3.03 3.505 3.03 3.505 0 3 C0 2.01 0 1.02 0 0 Z " fill="#519FC4" transform="translate(166,123)"/>
<path d="M0 0 C0.33 0.66 0.66 1.32 1 2 C1.66 2 2.32 2 3 2 C3 3.98 3 5.96 3 8 C2.01 8 1.02 8 0 8 C0 5.36 0 2.72 0 0 Z " fill="#252E4F" transform="translate(43,91)"/>
<path d="M0 0 C0 0.99 0 1.98 0 3 C-5.75 1.25 -5.75 1.25 -8 -1 C-4.37673261 -2.2077558 -3.35853631 -1.54311128 0 0 Z " fill="#293356" transform="translate(282,78)"/>
<path d="M0 0 C2.35171131 0.59861742 4.6859378 1.26924352 7 2 C7.33 2.66 7.66 3.32 8 4 C2.25 4.125 2.25 4.125 0 3 C0 2.01 0 1.02 0 0 Z " fill="#252E55" transform="translate(228,46)"/>
<path d="M0 0 C2 3 2 3 2 6 C1.34 6 0.68 6 0 6 C-0.66 7.32 -1.32 8.64 -2 10 C-1.125 2.25 -1.125 2.25 0 0 Z " fill="#212B4E" transform="translate(229,170)"/>
<path d="M0 0 C1 3 1 3 0 6 C-0.66 6 -1.32 6 -2 6 C-2.33 6.99 -2.66 7.98 -3 9 C-3.33 9 -3.66 9 -4 9 C-4.25 6.75 -4.25 6.75 -4 4 C-2 1.6875 -2 1.6875 0 0 Z " fill="#3D9CBD" transform="translate(181,156)"/>
<path d="M0 0 C0.33 0.66 0.66 1.32 1 2 C1.99 2.33 2.98 2.66 4 3 C4 4.98 4 6.96 4 9 C3.01 8.34 2.02 7.68 1 7 C0.3125 3.375 0.3125 3.375 0 0 Z " fill="#10183E" transform="translate(286,95)"/>
<path d="M0 0 C3.465 1.485 3.465 1.485 7 3 C5.25 4.125 5.25 4.125 3 5 C0.75 4.125 0.75 4.125 -1 3 C-0.67 2.01 -0.34 1.02 0 0 Z " fill="#192A4A" transform="translate(232,77)"/>
<path d="M0 0 C0.66 0 1.32 0 2 0 C2.66 1.65 3.32 3.3 4 5 C2.02 4.34 0.04 3.68 -2 3 C-1.34 2.01 -0.68 1.02 0 0 Z " fill="#0D1642" transform="translate(202,66)"/>
<path d="M0 0 C6.52307692 -0.36923077 6.52307692 -0.36923077 8.9375 1.5 C9.288125 1.995 9.63875 2.49 10 3 C9.67 3.66 9.34 4.32 9 5 C4.545 3.02 4.545 3.02 0 1 C0 0.67 0 0.34 0 0 Z " fill="#202B4D" transform="translate(173,5)"/>
<path d="M0 0 C1.0625 1.8125 1.0625 1.8125 2 4 C1.67 4.99 1.34 5.98 1 7 C0.01 6.34 -0.98 5.68 -2 5 C-2 3.68 -2 2.36 -2 1 C-1.34 0.67 -0.68 0.34 0 0 Z " fill="#212D50" transform="translate(30,154)"/>
<path d="M0 0 C2.475 0.99 2.475 0.99 5 2 C5 2.66 5 3.32 5 4 C3.35 4 1.7 4 0 4 C0 2.68 0 1.36 0 0 Z " fill="#2C75A0" transform="translate(209,151)"/>
<path d="M0 0 C1.98 0.99 3.96 1.98 6 3 C5.01 4.485 5.01 4.485 4 6 C2.35 4.68 0.7 3.36 -1 2 C-0.67 1.34 -0.34 0.68 0 0 Z " fill="#19244C" transform="translate(260,123)"/>
<path d="M0 0 C1.32 0.66 2.64 1.32 4 2 C2.6875 3.5 2.6875 3.5 1 5 C0.01 5 -0.98 5 -2 5 C-2 4.01 -2 3.02 -2 2 C-1.34 2 -0.68 2 0 2 C0 1.34 0 0.68 0 0 Z " fill="#333E60" transform="translate(40,118)"/>
<path d="M0 0 C2.31 0.33 4.62 0.66 7 1 C7 1.99 7 2.98 7 4 C7.99 4.33 8.98 4.66 10 5 C9.01 5.495 9.01 5.495 8 6 C6.0546875 5.0390625 6.0546875 5.0390625 3.875 3.625 C3.15054687 3.16351563 2.42609375 2.70203125 1.6796875 2.2265625 C1.12539063 1.82179688 0.57109375 1.41703125 0 1 C0 0.67 0 0.34 0 0 Z " fill="#2D3758" transform="translate(267,106)"/>
<path d="M0 0 C0.66 0.33 1.32 0.66 2 1 C1.01 2.485 1.01 2.485 0 4 C-3.625 4.1875 -3.625 4.1875 -7 4 C-4.61426621 2.10786631 -2.92824652 0.97608217 0 0 Z " fill="#212A53" transform="translate(107,44)"/>
<path d="M0 0 C0.66 0.33 1.32 0.66 2 1 C-0.68841859 3.25245881 -2.64641875 4.88213958 -6 6 C-6 5.01 -6 4.02 -6 3 C-4.03533587 1.93224776 -2.03144641 0.93446535 0 0 Z " fill="#0A1336" transform="translate(234,201)"/>
<path d="M0 0 C0.33 1.98 0.66 3.96 1 6 C0.01 6.33 -0.98 6.66 -2 7 C-2.33 5.02 -2.66 3.04 -3 1 C-1 0 -1 0 0 0 Z " fill="#2D7AA9" transform="translate(186,189)"/>
<path d="M0 0 C0.99 0 1.98 0 3 0 C3.33 1.98 3.66 3.96 4 6 C3.01 5.67 2.02 5.34 1 5 C0.67 3.35 0.34 1.7 0 0 Z " fill="#1B294C" transform="translate(103,178)"/>
<path d="M0 0 C2.5 1.8125 2.5 1.8125 5 4 C5 4.99 5 5.98 5 7 C3 7 3 7 1.375 5.75 C0 4 0 4 0 0 Z " fill="#1F3958" transform="translate(217,154)"/>
<path d="M0 0 C0 3 0 3 -1.3125 4.38671875 C-2.875 5.59114583 -4.4375 6.79557292 -6 8 C-4.52307692 2.33846154 -4.52307692 2.33846154 -1.875 0.625 C-0.946875 0.315625 -0.946875 0.315625 0 0 Z " fill="#242E51" transform="translate(8,149)"/>
<path d="M0 0 C1.5 1.3125 1.5 1.3125 3 3 C3 3.99 3 4.98 3 6 C2.34 6 1.68 6 1 6 C0.34 6.66 -0.32 7.32 -1 8 C-0.67 5.36 -0.34 2.72 0 0 Z " fill="#3298B4" transform="translate(185,145)"/>
<path d="M0 0 C0.99 0 1.98 0 3 0 C3 1.65 3 3.3 3 5 C2.01 5.33 1.02 5.66 0 6 C0 4.02 0 2.04 0 0 Z " fill="#465171" transform="translate(45,103)"/>
<path d="M0 0 C5.75 -0.125 5.75 -0.125 8 1 C8 1.66 8 2.32 8 3 C6.35 3.33 4.7 3.66 3 4 C3.33 3.01 3.66 2.02 4 1 C2.68 0.67 1.36 0.34 0 0 Z " fill="#1D2645" transform="translate(216,82)"/>
</svg>
